<svg width="414" height="896" viewBox="0 0 414 896" fill="none" xmlns="http://www.w3.org/2000/svg">
<path d="M407.509 419.81V435.462H402.985V419.81H407.509Z" fill="#0094FF"/>
<path d="M361.687 523.725V536.023H355.075V523.725H361.687Z" fill="#F8E71C"/>
<path d="M303.568 448.522V430.726L304.936 431.589V449.385L303.568 448.522Z" fill="#89C5FF"/>
<path d="M419.84 428.608V439.788H408.926V428.608H419.84Z" fill="#89C5FF"/>
<path d="M252.759 274L230 288.212L233.034 293.071L255.793 278.858L252.759 274Z" fill="#F8E71C"/>
<path d="M188 158.12L197.348 169.969L200.035 167.849L190.687 156L188 158.12Z" fill="url(#paint0_linear_387_654)"/>
<path d="M120 130.608L121.11 115.001L127.151 115.432L126.041 131.038L120 130.608Z" fill="#0094FF"/>
<path d="M113.639 301.567L114.951 282.888L113.287 282.77L111.974 301.45L113.639 301.567Z" fill="#89C5FF"/>
<path d="M3.29432 423.952L4.08526 412.804L0.683518 412.561L-0.107422 423.71L3.29432 423.952Z" fill="#89C5FF"/>
<path d="M128.588 629.51L129.662 614.47L142.418 615.38L141.344 630.42L128.588 629.51Z" fill="url(#paint1_linear_387_654)"/>
<path d="M212.078 526.469L198.566 510.288L206.808 500.971L219.129 517.055L212.078 526.469Z" fill="url(#paint2_linear_387_654)"/>
<path d="M177.434 580.761V587.69L174.245 593.546V586.618L177.434 580.761Z" fill="#0094FF"/>
<path d="M305.868 615.896V618.606H296.92V615.896H305.868Z" fill="#F8E71C"/>
<path d="M271.301 639.484V658.14H268.225V639.484H271.301Z" fill="#89C5FF"/>
<path d="M283.725 366.303V367.935H272.54V366.303H283.725Z" fill="#89C5FF"/>
<path d="M281.55 52V74.0281H274V52H281.55Z" fill="#F8E71C"/>
<path d="M39.0385 208L43.6482 220.244L31.6097 224.776L27 212.532L39.0385 208Z" fill="url(#paint3_linear_387_654)"/>
<path d="M142.804 180.904L124 177.283L129.572 176.84C129.572 176.84 148.265 180.526 147.313 180.588C145.947 180.676 142.804 180.904 142.804 180.904Z" fill="#F8E71C"/>
<path d="M95.2969 273.655L95.1701 275.432L104.095 276.062L104.221 274.285L95.2969 273.655Z" fill="#F8E71C"/>
<path d="M22.3615 379.604L22.4906 377.794L33.6469 378.58L33.5178 380.39L22.3615 379.604Z" fill="#89C5FF"/>
<path d="M415.87 372.49L421.812 377.654L419.036 380.846L413.093 375.682L415.87 372.49Z" fill="#F8E71C"/>
<path d="M299.193 321.391L290.588 313.914L291.574 313.612L300.179 321.088L299.193 321.391Z" fill="#89C5FF"/>
<path d="M346.323 196.296L351.725 200.99L347.143 206.259L341.74 201.565L346.323 196.296Z" fill="#89C5FF"/>
<path d="M70 171.937L82.9665 183.203L84.6511 181.266L71.6846 170L70 171.937Z" fill="#F8E71C"/>
<path d="M67.4294 230.736L74.7231 237.073L76.1601 235.42L68.8665 229.083L67.4294 230.736Z" fill="url(#paint4_linear_387_654)"/>
<path d="M14.29 265.936L7.20318 258.853L9.95128 256.106L17.0381 263.19L14.29 265.936Z" fill="#0094FF"/>
<path d="M39.1127 404.802L30.6338 396.328L29.8761 397.085L38.355 405.56L39.1127 404.802Z" fill="#89C5FF"/>
<path d="M35.9951 580.858L30.9331 575.798L29.385 577.345L34.447 582.405L35.9951 580.858Z" fill="#89C5FF"/>
<path d="M161.813 595.277L149.664 583.135L151.729 581.071L163.877 593.214L161.813 595.277Z" fill="#F8E71C"/>
<path d="M252.569 562.108L245.735 555.278L251.531 549.485L258.365 556.315L252.569 562.108Z" fill="url(#paint5_linear_387_654)"/>
<path d="M270.469 473.853L256.958 473.605L255.906 465.706L268.87 466.489L270.469 473.853Z" fill="url(#paint6_linear_387_654)"/>
<path d="M383.007 588.941L386.354 591.852L387.847 595.849L384.499 592.939L383.007 588.941Z" fill="#0094FF"/>
<path d="M379.83 452.096L381.14 453.234L377.383 457.554L376.073 456.416L379.83 452.096Z" fill="#F8E71C"/>
<path d="M397.394 45.6818L398.183 46.367L393.486 51.7671L392.698 51.0819L397.394 45.6818Z" fill="#89C5FF"/>
<path d="M1.26702 184.579L7.58923 190.072L2.18794 196.282L-4.13428 190.789L1.26702 184.579Z" fill="url(#paint7_linear_387_654)"/>
<path d="M1.36406 281.648L-11.7856 286.161L-16.8587 277.03C-16.8587 277.03 -3.27203 272.99 -2.48925 274.478C-1.36597 276.612 1.36406 281.648 1.36406 281.648Z" fill="url(#paint8_linear_387_654)"/>
<path d="M17.6858 438.588L21.2339 442.135L22.6259 440.743L19.0779 437.197L17.6858 438.588Z" fill="#89C5FF"/>
<path d="M42.7195 501.583L41.8951 500.759L46.9571 495.7L47.7815 496.524L42.7195 501.583Z" fill="#89C5FF"/>
<path d="M161.869 705.353L166.513 709.994L169.93 706.579L165.286 701.938L161.869 705.353Z" fill="#F8E71C"/>
<path d="M276.938 647.358L273.133 643.555L278.955 637.737L282.76 641.54L276.938 647.358Z" fill="url(#paint9_linear_387_654)"/>
<path d="M51.49 852.139L47.1397 858.834L45.2054 857.578L49.5557 850.883L51.49 852.139Z" fill="#0094FF"/>
<path d="M296.769 755.504L293.351 760.764L290.523 758.928L293.942 753.668L296.769 755.504Z" fill="#F8E71C"/>
<path d="M293.622 543.167L298.571 535.551L298.919 536.295L293.971 543.912L293.622 543.167Z" fill="#89C5FF"/>
<path d="M279.113 298.897L271.655 310.373L273.371 311.487L280.828 300.01L279.113 298.897Z" fill="#F8E71C"/>
<path d="M135.492 324.302L131.298 330.758L132.761 331.708L136.956 325.252L135.492 324.302Z" fill="url(#paint10_linear_387_654)"/>
<path d="M325 243.375L329.807 237L332.28 238.863L327.473 245.238L325 243.375Z" fill="#0094FF"/>
<path d="M278 186.009L281.777 181L284.522 183.068L280.745 188.077L278 186.009Z" fill="#F8E71C"/>
<path d="M135.908 274.408L141.658 266.781L140.976 266.267L135.226 273.895L135.908 274.408Z" fill="#89C5FF"/>
<path d="M104.777 364.881L108.21 360.327L106.817 359.278L103.384 363.831L104.777 364.881Z" fill="#89C5FF"/>
<path d="M34.6821 456.869L42.9219 445.94L44.7796 447.34L36.5398 458.269L34.6821 456.869Z" fill="#F8E71C"/>
<path d="M9.96788 579.662L14.6032 573.514L19.8192 577.443L15.1838 583.59L9.96788 579.662Z" fill="url(#paint11_linear_387_654)"/>
<path d="M159.873 515.854L158.572 505.17L164.692 503.464L165.51 513.776L159.873 515.854Z" fill="url(#paint12_linear_387_654)"/>
<path d="M47.9483 513.235L46.021 516.199L43.0312 517.818L44.9585 514.855L47.9483 513.235Z" fill="#0094FF"/>
<path d="M161.293 871.703L160.539 872.862L156.712 870.378L157.466 869.219L161.293 871.703Z" fill="#F8E71C"/>
<path d="M107.555 805.458L102.37 813.438L101.054 812.584L106.24 804.604L107.555 805.458Z" fill="#89C5FF"/>
<path d="M337.016 452.31L336.562 453.008L331.778 449.903L332.232 449.205L337.016 452.31Z" fill="#89C5FF"/>
<path d="M394.424 178.737L388.301 188.159L385.073 186.062L391.196 176.641L394.424 178.737Z" fill="#F8E71C"/>
<path d="M315.138 204.572L311.501 210.168L306.001 206.596L309.638 201.001L315.138 204.572Z" fill="url(#paint13_linear_387_654)"/>
<path d="M194.731 295.575L189.711 285.704L196.358 280.69C196.358 280.69 201.052 290.958 199.965 291.74C198.404 292.863 194.731 295.575 194.731 295.575Z" fill="url(#paint14_linear_387_654)"/>
<path d="M262.169 152.047L258.838 156.46L255.63 156.457L258.961 152.044L262.169 152.047Z" fill="#0094FF"/>
<path d="M287.549 269L287 269.728L290.645 272.473L291.194 271.745L287.549 269Z" fill="#F8E71C"/>
<path d="M98.4065 216L96 219.192L97.2527 220.135L99.6592 216.944L98.4065 216Z" fill="#89C5FF"/>
<path d="M6.0162 291.912L6.57542 291.17L11.1312 294.602L10.572 295.343L6.0162 291.912Z" fill="#89C5FF"/>
<path d="M210.681 742.073L213.262 738.65L218.501 742.596L215.92 746.019L210.681 742.073Z" fill="url(#paint15_linear_387_654)"/>
<path d="M76.8856 670.62L77.4842 662.252L90.3042 663.164L89.7056 671.532L76.8856 670.62Z" fill="url(#paint16_linear_387_654)"/>
<defs>
<linearGradient id="paint0_linear_387_654" x1="196.88" y1="160.727" x2="190.046" y2="166.118" gradientUnits="userSpaceOnUse">
<stop stop-color="#492EF7"/>
<stop offset="0.5" stop-color="#517CF7"/>
<stop offset="1" stop-color="#3B9BF8"/>
</linearGradient>
<linearGradient id="paint1_linear_387_654" x1="149.09" y1="623.414" x2="116.647" y2="621.097" gradientUnits="userSpaceOnUse">
<stop stop-color="#2E62F7"/>
<stop offset="0.5" stop-color="#5182F7"/>
<stop offset="1" stop-color="#1E26CE"/>
</linearGradient>
<linearGradient id="paint2_linear_387_654" x1="203.391" y1="432.53" x2="221.484" y2="433.822" gradientUnits="userSpaceOnUse">
<stop stop-color="#5861AB"/>
<stop offset="0.5" stop-color="#7D449F"/>
<stop offset="1" stop-color="#A32693"/>
</linearGradient>
<linearGradient id="paint3_linear_387_654" x1="22.5005" y1="221.216" x2="53.1201" y2="209.688" gradientUnits="userSpaceOnUse">
<stop stop-color="#2E7FF7"/>
<stop offset="0.5" stop-color="#5164F7"/>
<stop offset="1" stop-color="#0F61DB"/>
</linearGradient>
<linearGradient id="paint4_linear_387_654" x1="73.3255" y1="231.318" x2="69.6726" y2="235.522" gradientUnits="userSpaceOnUse">
<stop stop-color="#4214F5"/>
<stop offset="0.5" stop-color="#1D8BF6"/>
<stop offset="1" stop-color="#1A83E9"/>
</linearGradient>
<linearGradient id="paint5_linear_387_654" x1="258.224" y1="549.626" x2="243.489" y2="564.368" gradientUnits="userSpaceOnUse">
<stop stop-color="#F72E67"/>
<stop offset="0.5" stop-color="#F75851"/>
<stop offset="1" stop-color="#F8833B"/>
</linearGradient>
<linearGradient id="paint6_linear_387_654" x1="221.322" y1="438.644" x2="229.539" y2="430.422" gradientUnits="userSpaceOnUse">
<stop stop-color="#5861AB"/>
<stop offset="0.5" stop-color="#7D449F"/>
<stop offset="1" stop-color="#A32693"/>
</linearGradient>
<linearGradient id="paint7_linear_387_654" x1="-4.02607" y1="197.046" x2="9.7041" y2="181.243" gradientUnits="userSpaceOnUse">
<stop stop-color="#F72E67"/>
<stop offset="0.5" stop-color="#F75851"/>
<stop offset="1" stop-color="#F8833B"/>
</linearGradient>
<linearGradient id="paint8_linear_387_654" x1="-46.884" y1="256.603" x2="-35.2797" y2="243.247" gradientUnits="userSpaceOnUse">
<stop stop-color="#AB5858"/>
<stop offset="0.5" stop-color="#A73F76"/>
<stop offset="1" stop-color="#A32693"/>
</linearGradient>
<linearGradient id="paint9_linear_387_654" x1="284.147" y1="636.349" x2="269.348" y2="651.156" gradientUnits="userSpaceOnUse">
<stop stop-color="#2E70F7"/>
<stop offset="0.5" stop-color="#5164F7"/>
<stop offset="1" stop-color="#3B4AF8"/>
</linearGradient>
<linearGradient id="paint10_linear_387_654" x1="135.686" y1="329.017" x2="131.964" y2="326.599" gradientUnits="userSpaceOnUse">
<stop stop-color="#492EF7"/>
<stop offset="0.5" stop-color="#519FF7"/>
<stop offset="1" stop-color="#3B73F8"/>
</linearGradient>
<linearGradient id="paint11_linear_387_654" x1="20.4497" y1="582.737" x2="7.18789" y2="572.738" gradientUnits="userSpaceOnUse">
<stop stop-color="#2E30F7"/>
<stop offset="0.5" stop-color="#1415AD"/>
<stop offset="1" stop-color="#3B87F8"/>
</linearGradient>
<linearGradient id="paint12_linear_387_654" x1="182.225" y1="473.185" x2="189.621" y2="478.762" gradientUnits="userSpaceOnUse">
<stop stop-color="#5861AB"/>
<stop offset="0.5" stop-color="#7D449F"/>
<stop offset="1" stop-color="#A32693"/>
</linearGradient>
<linearGradient id="paint13_linear_387_654" x1="304.71" y1="201.78" x2="318.696" y2="210.871" gradientUnits="userSpaceOnUse">
<stop stop-color="#2E9BF7"/>
<stop offset="0.5" stop-color="#5182F7"/>
<stop offset="1" stop-color="#1C58C0"/>
</linearGradient>
<linearGradient id="paint14_linear_387_654" x1="209.16" y1="254.743" x2="220.982" y2="262.426" gradientUnits="userSpaceOnUse">
<stop stop-color="#5861AB"/>
<stop offset="0.5" stop-color="#7D449F"/>
<stop offset="1" stop-color="#A32693"/>
</linearGradient>
<linearGradient id="paint15_linear_387_654" x1="220.171" y1="746.538" x2="206.851" y2="736.494" gradientUnits="userSpaceOnUse">
<stop stop-color="#2E77F7"/>
<stop offset="0.5" stop-color="#2439DF"/>
<stop offset="1" stop-color="#6A84F8"/>
</linearGradient>
<linearGradient id="paint16_linear_387_654" x1="97.2509" y1="667.864" x2="64.6446" y2="665.531" gradientUnits="userSpaceOnUse">
<stop stop-color="#492EF7"/>
<stop offset="0.5" stop-color="#7F51F7"/>
<stop offset="1" stop-color="#3B9BF8"/>
</linearGradient>
</defs>
</svg>
