<?xml version="1.0" encoding="utf-8"?>
<!-- Designed by Vexels.com - 2020 All Rights Reserved - https://vexels.com/terms-and-conditions/  -->
<svg version="1.1" id="Layer_1" xmlns="http://www.w3.org/2000/svg" xmlns:xlink="http://www.w3.org/1999/xlink" x="0px" y="0px"
	 viewBox="0 0 1200 1200" enable-background="new 0 0 1200 1200" xml:space="preserve">
<g>
	<g>
		<path fill="none" d="M316.477,566.782c-0.761-28.779-6.662-135.185-52.178-173.629c-10.82-9.14-22.95-13.654-36.811-13.654
			c-4.052,0-8.253,0.385-12.615,1.155c-24.72,4.363-37.268,16.684-38.357,37.669c-2.734,52.76,69.736,143.533,131.743,168.535
			C311.133,580.43,313.876,573.736,316.477,566.782z"/>
		<path fill="none" d="M826.236,383.826v8.788c0,5.234,3.008,10.921,9.031,10.921c6.128,0,9.194-5.687,9.194-10.921v-8.788
			c0-5.231-3.066-10.918-9.194-10.918C829.245,372.908,826.236,378.595,826.236,383.826z"/>
		<path fill="none" d="M300.297,603.406c-28.924-3.892-54.836-5.827-77.541-5.827c-49.895,0-84.303,9.346-101.23,27.836
			c-12.372,13.516-15.488,31.972-9.526,56.419c4.534,18.583,20.347,29.997,43.388,31.314
			C199.288,715.677,259.692,681.891,300.297,603.406z"/>
		<path fill="none" d="M729.194,439.07l15.092,27.132l-17.781,25.451l2.574,28.929h278.125V305.86h-23.278
			c-4.286,0-7.759-3.473-7.759-7.759c0-4.286,3.473-7.759,7.759-7.759h23.278V162.648h-56.163
			c0.382,15.632-1.497,48.916-21.829,71.748c-13.585,15.256-32.734,22.993-56.912,22.993c-24.808,0-44.197-7.142-57.633-21.229
			c-21.52-22.567-21.595-57.027-20.944-73.512h-72.436v127.694h23.278c4.286,0,7.759,3.473,7.759,7.759
			c0,4.286-3.473,7.759-7.759,7.759h-23.278v92.36l13.8,10.367L729.194,439.07z M929.196,440.726c0,6.491-2.031,14.311-6.089,17.313
			c-4.065,3.006-9.521,4.505-16.374,4.505c-14.869,0-22.304-9.319-22.304-21.818v-8.791c0-6.491,1.983-14.31,5.948-17.313
			c3.965-3.003,9.424-4.505,16.374-4.505c6.95,0,12.427,1.503,16.434,4.505c4.007,3.003,6.011,10.822,6.011,17.313V440.726z
			 M885.363,290.342h56.321c4.286,0,7.759,3.473,7.759,7.759c0,4.286-3.473,7.759-7.759,7.759h-56.321
			c-4.286,0-7.759-3.473-7.759-7.759C877.604,293.815,881.077,290.342,885.363,290.342z M893.302,356.174
			c1.157-2.037,3.053-3.053,5.69-3.053c2.042,0,3.897,0.633,5.564,1.89c1.665,1.26,2.502,2.81,2.502,4.652
			c0,0.969-0.213,1.842-0.633,2.616L849.5,467.796c-0.951,2.13-3.006,3.197-6.167,3.197c-2.153,0-3.953-0.654-5.405-1.962
			c-1.455-1.308-2.178-2.787-2.178-4.433c0-0.675,0.21-1.5,0.633-2.472L893.302,356.174z M857.731,383.826v8.788
			c0,6.494-2.003,14.313-6.011,17.316c-4.007,3.005-9.484,4.505-16.434,4.505c-6.95,0-12.409-1.5-16.372-4.505
			c-3.968-3.003-5.947-10.822-5.947-17.316v-8.788c0-6.491,1.979-14.311,5.947-17.313c3.963-3.002,9.422-4.508,16.372-4.508
			c6.95,0,12.426,1.506,16.434,4.508C855.727,369.516,857.731,377.335,857.731,383.826z M786.803,290.342h56.321
			c4.286,0,7.759,3.473,7.759,7.759c0,4.286-3.473,7.759-7.759,7.759h-56.321c-4.286,0-7.759-3.473-7.759-7.759
			C779.044,293.815,782.517,290.342,786.803,290.342z"/>
		<path fill="none" d="M906.733,421.017c-6.023,0-9.031,5.687-9.031,10.918v8.791c0,5.231,3.009,10.918,9.031,10.918
			c6.128,0,9.193-5.687,9.193-10.918v-8.791C915.926,426.704,912.861,421.017,906.733,421.017z"/>
		<path fill="none" d="M226.121,894.798c-1.349,4.069,0.864,8.479,4.931,9.828l114.927,38.128c1.979,0.656,4.083,0.5,5.935-0.43
			c1.858-0.93,3.237-2.529,3.892-4.501l68.334-205.977l-129.624-43.209L226.121,894.798z"/>
		<path fill="none" d="M486.002,504.563l-20.404-23.402l12.101-28.592l-9.122-29.677l22.685-21.198l3.738-30.822l29.345-10.139
			l15.951-26.636l15.357,1.327l1.543-4.651c0.655-1.973,0.503-4.08-0.427-5.936c-0.934-1.856-2.531-3.239-4.501-3.892
			l-114.93-38.128c-1.979-0.658-4.083-0.502-5.935,0.429c-1.855,0.932-3.24,2.529-3.892,4.501l-71.473,215.44l129.741,42.857
			l3.107-9.366l-2.311-1.073L486.002,504.563z"/>
		<path fill="none" d="M689.97,964.63V568.294l-28.186,3.491l-21.141,22.738l-29.7-9.046l-28.561,12.174l-23.453-20.344
			l-31.044-0.496l-13.151-28.125l-11.679-5.425l-20.683,62.344v327.588c0,18.501,15.052,33.552,33.549,33.552h499.042
			c18.501,0,33.553-15.052,33.553-33.552V569.653c0-18.501-15.052-33.552-33.553-33.552H838.69V964.63H689.97z"/>
		<path fill="#FFC355" d="M331.759,576.375c-0.002,0.006-0.005,0.012-0.006,0.018l-37.237,112.243l129.624,43.209l61.64-185.8
			l-129.741-42.857L331.759,576.375z"/>
		<path fill="#272844" d="M1064.034,933.192V569.653c0-24.411-17.937-44.658-41.312-48.396V154.889c0-4.286-3.473-7.759-7.759-7.759
			h-72.158c-2.213,0-4.322,0.946-5.795,2.599c-1.473,1.653-2.167,3.857-1.913,6.056c0.052,0.43,4.749,43.335-17.473,68.292
			c-10.514,11.809-25.763,17.795-45.325,17.795c-20.398,0-36.011-5.525-46.401-16.42c-18.701-19.609-17.167-51.937-16.513-65.743
			c0.097-2.031,0.17-3.666,0.17-4.819c0-4.286-3.473-7.759-7.759-7.759h-88.27c-4.286,0-7.759,3.473-7.759,7.759V370.56
			l4.496,19.379l11.023,8.281v-92.36h23.278c4.286,0,7.759-3.473,7.759-7.759c0-4.286-3.473-7.759-7.759-7.759h-23.278V162.648
			h72.436c-0.652,16.485-0.576,50.946,20.944,73.512c13.436,14.086,32.825,21.229,57.633,21.229
			c24.178,0,43.327-7.736,56.912-22.993c20.332-22.832,22.211-56.116,21.829-71.748h56.163v127.694h-23.278
			c-4.286,0-7.759,3.473-7.759,7.759c0,4.286,3.473,7.759,7.759,7.759h23.278v214.723H729.079l0.177,1.997l-22.448,13.52h6.703
			c0.005,0,0.01,0.002,0.015,0.002H838.69h176.273c18.501,0,33.553,15.052,33.553,33.552v363.539
			c0,18.501-15.052,33.552-33.553,33.552H515.922c-18.498,0-33.549-15.052-33.549-33.552V605.604l20.683-62.344l-14.168-6.581
			l-3.107,9.366l-61.64,185.8l-68.334,205.977c-0.655,1.972-2.034,3.57-3.892,4.501c-1.852,0.931-3.955,1.087-5.935,0.43
			l-114.927-38.128c-4.068-1.349-6.28-5.759-4.931-9.828l68.395-206.162l37.237-112.243c0.001-0.006,0.004-0.012,0.006-0.018
			l24.28-73.187l71.473-215.44c0.652-1.972,2.037-3.569,3.892-4.501c1.852-0.931,3.955-1.087,5.935-0.429l114.93,38.128
			c1.97,0.653,3.567,2.035,4.501,3.892c0.931,1.856,1.082,3.963,0.427,5.936l-1.543,4.651l15.575,1.346l0.43-0.302l0.268-0.808
			c1.958-5.906,1.503-12.222-1.288-17.784c-2.792-5.56-7.58-9.702-13.485-11.662l-114.93-38.126
			c-5.901-1.956-12.221-1.502-17.78,1.288c-5.562,2.79-9.705,7.579-11.663,13.485l-49.961,150.596
			c1.043-21.454-0.248-38.796-1.384-53.93c-2.573-34.257-4.271-56.889,20.523-94.806c2.343-3.587,1.337-8.396-2.249-10.74
			c-3.583-2.343-8.393-1.34-10.742,2.247c-27.672,42.323-25.614,69.743-23.008,104.46c2.543,33.872,5.622,74.881-16.334,147.264
			c-4.619-46.287-17.798-114.955-55.303-146.645c-17.476-14.767-38.39-20.13-62.149-15.937
			c-31.534,5.565-49.701,24.084-51.156,52.147c-2.649,51.124,51.317,127.966,109.999,166.925
			c-81.46-7.508-135.495,2.702-160.937,30.494c-15.912,17.382-20.341,41.127-13.157,70.574c6.171,25.298,27.694,41.422,57.576,43.13
			c1.749,0.1,3.51,0.15,5.301,0.15c24.914-0.002,53.854-9.752,81.849-30.337c-12.826,18.031-25.784,35.047-37.206,47.787
			c-44.506,49.642-41.779,186.298-41.639,192.092c0.1,4.221,3.552,7.574,7.753,7.574c0.061,0,0.124-0.002,0.188-0.003
			c4.283-0.102,7.674-3.657,7.571-7.94c-0.03-1.358-2.731-136.288,37.681-181.364c22.901-25.543,51.075-66.577,72.792-99.993
			l-77.399,233.303c-4.043,12.19,2.585,25.399,14.776,29.444l114.927,38.128c2.425,0.803,4.892,1.185,7.317,1.185
			c9.766,0,18.886-6.195,22.126-15.961l96.317-290.327v280.811c0,27.057,22.011,49.072,49.068,49.072h499.042
			C1042.02,982.265,1064.034,960.249,1064.034,933.192z M176.517,418.322c1.088-20.985,13.636-33.306,38.357-37.669
			c4.362-0.77,8.562-1.155,12.615-1.155c13.861,0,25.99,4.515,36.811,13.654c45.516,38.444,51.417,144.85,52.178,173.629
			c-2.601,6.955-5.344,13.648-8.217,20.075C246.253,561.855,173.783,471.081,176.517,418.322z M155.388,713.149
			c-23.041-1.317-38.854-12.732-43.388-31.314c-5.962-24.448-2.846-42.903,9.526-56.419c16.928-18.49,51.335-27.836,101.23-27.836
			c22.705,0,48.616,1.935,77.541,5.827C259.692,681.891,199.288,715.677,155.388,713.149z"/>
		<path fill="#272844" d="M885.363,305.86h56.321c4.286,0,7.759-3.473,7.759-7.759c0-4.286-3.473-7.759-7.759-7.759h-56.321
			c-4.286,0-7.759,3.473-7.759,7.759C877.604,302.387,881.077,305.86,885.363,305.86z"/>
		<path fill="#272844" d="M786.803,305.86h56.321c4.286,0,7.759-3.473,7.759-7.759c0-4.286-3.473-7.759-7.759-7.759h-56.321
			c-4.286,0-7.759,3.473-7.759,7.759C779.044,302.387,782.517,305.86,786.803,305.86z"/>
		<path fill="#FFC355" d="M639.764,483.545v11.829c0,7.038,4.048,14.69,12.152,14.69c8.245,0,12.37-7.652,12.37-14.69v-11.829
			c0-7.038-4.124-14.69-12.37-14.69C643.812,468.855,639.764,476.507,639.764,483.545z"/>
		<path fill="#FFC355" d="M543.607,430.64c0,7.042,4.048,14.694,12.151,14.694c8.245,0,12.37-7.652,12.37-14.694v-11.825
			c0-7.038-4.125-14.69-12.37-14.69c-8.104,0-12.151,7.652-12.151,14.69V430.64z"/>
		<path fill="#FFC355" d="M555.654,335.424l-15.357-1.327l-15.951,26.636l-29.345,10.139l-3.738,30.822l-22.685,21.198l9.122,29.677
			l-12.101,28.592l20.404,23.402l0.574,31.042l2.311,1.073l14.168,6.581l11.679,5.425l13.151,28.125l31.044,0.496l23.453,20.344
			l28.561-12.174l29.7,9.046l21.141-22.738l28.186-3.491V964.63h148.72V536.101H713.527c-0.005,0-0.01-0.002-0.015-0.002h-6.703
			l22.448-13.52l-0.177-1.997l-2.574-28.929l17.781-25.451l-15.092-27.132l5.892-30.483l-13.8-10.367l-11.023-8.281l-4.496-19.379
			l-2.521-10.866l-30.262-6.94l-18.711-24.776l-30.469,5.969l-27.17-15.024l-24.976,17.543l-0.43,0.302L555.654,335.424z
			 M674.052,460.251c5.392,4.04,8.088,14.561,8.088,23.294v11.829c0,8.733-2.732,19.255-8.193,23.294
			c-5.469,4.044-12.81,6.062-22.031,6.062c-20.005,0-30.01-12.539-30.01-29.356v-11.829c0-8.733,2.668-19.255,8.003-23.294
			s12.681-6.062,22.031-6.062C661.291,454.189,668.66,456.211,674.052,460.251z M633.844,381.609
			c1.558-2.74,4.108-4.108,7.656-4.108c2.748,0,5.242,0.852,7.486,2.543c2.24,1.695,3.366,3.781,3.366,6.259
			c0,1.303-0.287,2.478-0.852,3.519l-76.591,141.975c-1.28,2.865-4.044,4.302-8.298,4.302c-2.898,0-5.319-0.88-7.272-2.639
			c-1.957-1.76-2.93-3.749-2.93-5.965c0-0.908,0.283-2.018,0.852-3.326L633.844,381.609z M555.783,389.455
			c9.351,0,16.721,2.026,22.112,6.066c5.392,4.04,8.088,14.561,8.088,23.295v11.825c0,8.737-2.696,19.259-8.088,23.299
			c-5.392,4.044-12.761,6.062-22.112,6.062c-9.35,0-16.696-2.018-22.027-6.062c-5.339-4.04-8.002-14.561-8.002-23.299v-11.825
			c0-8.733,2.663-19.255,8.002-23.295C539.087,391.481,546.433,389.455,555.783,389.455z"/>
		<path fill="#272844" d="M533.756,395.521c-5.339,4.04-8.002,14.561-8.002,23.295v11.825c0,8.737,2.663,19.259,8.002,23.299
			c5.331,4.044,12.677,6.062,22.027,6.062c9.351,0,16.721-2.018,22.112-6.062c5.392-4.04,8.088-14.561,8.088-23.299v-11.825
			c0-8.733-2.696-19.255-8.088-23.295c-5.392-4.04-12.761-6.066-22.112-6.066C546.433,389.455,539.087,391.481,533.756,395.521z
			 M555.759,404.125c8.245,0,12.37,7.652,12.37,14.69v11.825c0,7.042-4.125,14.694-12.37,14.694
			c-8.104,0-12.151-7.652-12.151-14.694v-11.825C543.607,411.777,547.655,404.125,555.759,404.125z"/>
		<path fill="#272844" d="M629.909,460.251c-5.335,4.04-8.003,14.561-8.003,23.294v11.829c0,16.817,10.005,29.356,30.01,29.356
			c9.222,0,16.563-2.018,22.031-6.062c5.46-4.04,8.193-14.561,8.193-23.294v-11.829c0-8.733-2.696-19.255-8.088-23.294
			c-5.392-4.04-12.761-6.062-22.112-6.062C642.589,454.189,635.244,456.211,629.909,460.251z M664.286,483.545v11.829
			c0,7.038-4.124,14.69-12.37,14.69c-8.104,0-12.152-7.652-12.152-14.69v-11.829c0-7.038,4.048-14.69,12.152-14.69
			C660.161,468.855,664.286,476.507,664.286,483.545z"/>
		<path fill="#272844" d="M557.261,524.17c-0.569,1.308-0.852,2.417-0.852,3.326c0,2.216,0.973,4.205,2.93,5.965
			c1.953,1.76,4.375,2.639,7.272,2.639c4.254,0,7.018-1.437,8.298-4.302L651.5,389.822c0.565-1.041,0.852-2.216,0.852-3.519
			c0-2.478-1.126-4.564-3.366-6.259c-2.244-1.691-4.738-2.543-7.486-2.543c-3.548,0-6.098,1.368-7.656,4.108L557.261,524.17z"/>
		<path fill="#272844" d="M923.185,414.622c-4.007-3.003-9.484-4.505-16.434-4.505c-6.95,0-12.409,1.503-16.374,4.505
			c-3.965,3.003-5.948,10.822-5.948,17.313v8.791c0,12.499,7.436,21.818,22.304,21.818c6.854,0,12.31-1.5,16.374-4.505
			c4.058-3.002,6.089-10.822,6.089-17.313v-8.791C929.196,425.444,927.192,417.624,923.185,414.622z M915.926,440.726
			c0,5.231-3.065,10.918-9.193,10.918c-6.023,0-9.031-5.687-9.031-10.918v-8.791c0-5.231,3.009-10.918,9.031-10.918
			c6.128,0,9.193,5.687,9.193,10.918V440.726z"/>
		<path fill="#272844" d="M818.914,366.513c-3.968,3.003-5.947,10.822-5.947,17.313v8.788c0,6.494,1.979,14.313,5.947,17.316
			c3.963,3.005,9.422,4.505,16.372,4.505c6.95,0,12.426-1.5,16.434-4.505c4.008-3.003,6.011-10.822,6.011-17.316v-8.788
			c0-6.491-2.003-14.311-6.011-17.313c-4.007-3.002-9.484-4.508-16.434-4.508C828.336,362.005,822.877,363.511,818.914,366.513z
			 M844.461,383.826v8.788c0,5.234-3.066,10.921-9.194,10.921c-6.023,0-9.031-5.687-9.031-10.921v-8.788
			c0-5.231,3.008-10.918,9.031-10.918C841.396,372.908,844.461,378.595,844.461,383.826z"/>
		<path fill="#272844" d="M835.75,464.599c0,1.647,0.723,3.125,2.178,4.433c1.452,1.308,3.251,1.962,5.405,1.962
			c3.162,0,5.216-1.068,6.167-3.197l56.924-105.518c0.42-0.774,0.633-1.647,0.633-2.616c0-1.842-0.837-3.392-2.502-4.652
			c-1.667-1.257-3.522-1.89-5.564-1.89c-2.637,0-4.532,1.017-5.69,3.053l-56.918,105.953
			C835.96,463.099,835.75,463.924,835.75,464.599z"/>
		<path fill="#272844" d="M129.104,200.007H155.2v28.632c0,5.682,8.632,5.691,8.632,0v-28.632h26.096
			c2.843,0,4.116-2.169,4.116-4.319c0-2.146-1.273-4.312-4.116-4.312h-26.096v-32.936c0-5.683-8.632-5.689-8.632,0v32.936h-26.096
			c-2.843,0-4.116,2.169-4.116,4.319C124.988,197.842,126.261,200.007,129.104,200.007z"/>
		<path fill="#272844" d="M129.104,203.111h22.993v25.528c0,4.739,3.734,7.218,7.423,7.218c3.686,0,7.417-2.479,7.417-7.218v-25.528
			h22.993c4.74,0,7.22-3.734,7.22-7.423c0-3.684-2.479-7.415-7.22-7.415h-22.993v-29.832c0-9.473-14.839-9.482-14.839,0v29.832
			h-22.993c-4.74,0-7.22,3.734-7.22,7.423C121.884,199.38,124.363,203.111,129.104,203.111z M129.104,191.377H155.2v-32.936
			c0-5.689,8.632-5.683,8.632,0v32.936h26.096c2.843,0,4.116,2.166,4.116,4.312c0,2.15-1.273,4.319-4.116,4.319h-26.096v28.632
			c0,5.691-8.632,5.682-8.632,0v-28.632h-26.096c-2.843,0-4.116-2.166-4.116-4.312C124.988,193.545,126.261,191.377,129.104,191.377
			z"/>
		<path fill="#272844" d="M153.848,1105.518h-26.096v-32.937c0-5.683-8.632-5.689-8.632,0v32.937H93.023
			c-2.843,0-4.116,2.17-4.116,4.319c0,2.146,1.273,4.31,4.116,4.31h26.096v28.633c0,5.683,8.632,5.689,8.632,0v-28.633h26.096
			c2.843,0,4.116-2.17,4.116-4.319C157.964,1107.682,156.691,1105.518,153.848,1105.518z"/>
		<path fill="#272844" d="M153.848,1102.414h-22.993v-29.833c0-9.478-14.84-9.484-14.84,0v29.833H93.023
			c-4.74,0-7.22,3.734-7.22,7.423c0,3.682,2.479,7.414,7.22,7.414h22.993v25.53c0,4.74,3.734,7.22,7.423,7.22
			c3.686,0,7.417-2.479,7.417-7.22v-25.53h22.993c4.74,0,7.22-3.734,7.22-7.423C161.068,1106.145,158.589,1102.414,153.848,1102.414
			z M153.848,1114.147h-26.096v28.633c0,5.689-8.632,5.683-8.632,0v-28.633H93.023c-2.843,0-4.116-2.164-4.116-4.31
			c0-2.149,1.273-4.319,4.116-4.319h26.096v-32.937c0-5.689,8.632-5.683,8.632,0v32.937h26.096c2.843,0,4.116,2.164,4.116,4.31
			C157.964,1111.977,156.691,1114.147,153.848,1114.147z"/>
		<path fill="#272844" d="M520.62,154.922c0,2.15,1.273,4.319,4.116,4.319h26.099v28.632c0,5.691,8.629,5.681,8.629,0v-28.632
			h26.099c2.843,0,4.116-2.166,4.116-4.312c0-2.15-1.273-4.319-4.116-4.319h-26.099v-32.936c0-5.689-8.629-5.683-8.629,0v32.936
			h-26.099C521.893,150.611,520.62,152.776,520.62,154.922z"/>
		<path fill="#272844" d="M524.736,162.345h22.996v25.528c0,4.739,3.731,7.218,7.414,7.218c3.689,0,7.423-2.479,7.423-7.218v-25.528
			h22.996c4.74,0,7.22-3.731,7.22-7.415c0-3.689-2.479-7.423-7.22-7.423h-22.996v-29.832c0-9.487-14.836-9.472-14.836,0v29.832
			h-22.996c-4.74,0-7.22,3.731-7.22,7.415C517.516,158.611,519.995,162.345,524.736,162.345z M550.835,117.675
			c0-5.683,8.629-5.689,8.629,0v32.936h26.099c2.843,0,4.116,2.169,4.116,4.319c0,2.146-1.273,4.312-4.116,4.312h-26.099v28.632
			c0,5.681-8.629,5.691-8.629,0v-28.632h-26.099c-2.843,0-4.116-2.169-4.116-4.319c0-2.146,1.273-4.312,4.116-4.312h26.099V117.675z
			"/>
		<path fill="#272844" d="M571.618,82.049c0,0.856,0.467,0.856,0.718,0.856h19.662v21.37c0,0.252,0,0.72,0.852,0.72
			c0.855,0,0.855-0.468,0.855-0.72v-21.37h19.662c0.252,0,0.718,0,0.718-0.85c0-0.856-0.467-0.856-0.718-0.856h-19.662V56.926
			c0-0.252,0-0.718-0.852-0.718c-0.855,0-0.855,0.467-0.855,0.718v24.273h-19.662C572.085,81.199,571.618,81.199,571.618,82.049z"/>
		<path fill="#272844" d="M572.337,89.113h13.454v15.162c0,2.084,0.821,3.939,2.316,5.222c1.282,1.099,2.964,1.705,4.743,1.705
			c4.025,0,7.062-2.978,7.062-6.927V89.113h13.454c3.949,0,6.926-3.034,6.926-7.058c0-4.027-2.976-7.064-6.926-7.064h-13.454V56.926
			c0-3.948-3.034-6.926-7.059-6.926s-7.062,2.978-7.062,6.926v18.066h-13.454c-3.949,0-6.926,3.034-6.926,7.058
			C565.411,86.076,568.387,89.113,572.337,89.113z M591.998,56.926c0-0.252,0-0.718,0.855-0.718c0.852,0,0.852,0.467,0.852,0.718
			v24.273h19.662c0.252,0,0.718,0,0.718,0.856c0,0.85-0.467,0.85-0.718,0.85h-19.662v21.37c0,0.252,0,0.72-0.855,0.72
			c-0.852,0-0.852-0.468-0.852-0.72v-21.37h-19.662c-0.252,0-0.718,0-0.718-0.856c0-0.85,0.467-0.85,0.718-0.85h19.662V56.926z"/>
		<path fill="#272844" d="M854.708,1045.626c-4.286,0-7.759,3.474-7.759,7.759s3.473,7.759,7.759,7.759h199.669
			c4.286,0,7.759-3.473,7.759-7.759s-3.474-7.759-7.759-7.759H854.708z"/>
		<path fill="#272844" d="M989.561,1097.78H798.645c-4.286,0-7.759,3.474-7.759,7.759c0,4.286,3.473,7.759,7.759,7.759h190.916
			c4.286,0,7.759-3.474,7.759-7.759C997.32,1101.253,993.847,1097.78,989.561,1097.78z"/>
		<path fill="#272844" d="M1059.033,1097.78h-38.926c-4.286,0-7.759,3.474-7.759,7.759c0,4.286,3.473,7.759,7.759,7.759h38.926
			c4.286,0,7.759-3.474,7.759-7.759C1066.792,1101.253,1063.319,1097.78,1059.033,1097.78z"/>
		<path fill="#272844" d="M1106.437,1097.78h-19.465c-4.286,0-7.759,3.474-7.759,7.759c0,4.286,3.473,7.759,7.759,7.759h19.465
			c4.286,0,7.759-3.474,7.759-7.759C1114.196,1101.253,1110.723,1097.78,1106.437,1097.78z"/>
	</g>
</g>
</svg>
