<svg width="150" height="150" viewBox="0 0 150 150" fill="none" xmlns="http://www.w3.org/2000/svg">
<circle cx="75" cy="75" r="75" fill="#004A8D"/>
<path d="M75.7928 15.0057C41.5213 14.5428 13.5428 42.5213 14.0057 76.7928C14.4627 109.661 41.2254 136.424 74.0936 136.881C108.371 137.349 136.344 109.371 135.875 75.0994C135.424 42.2254 108.661 15.4627 75.7928 15.0057ZM112.83 110.88C112.713 111.006 112.57 111.105 112.411 111.17C112.252 111.234 112.08 111.263 111.909 111.254C111.737 111.245 111.569 111.199 111.418 111.118C111.266 111.037 111.134 110.924 111.031 110.786C108.411 107.357 105.201 104.422 101.554 102.117C94.0945 97.3299 84.6434 94.6932 74.9432 94.6932C65.243 94.6932 55.7918 97.3299 48.3328 102.117C44.685 104.421 41.4759 107.355 38.8553 110.783C38.7523 110.921 38.6203 111.034 38.4687 111.115C38.3171 111.196 38.1495 111.242 37.9778 111.251C37.8062 111.26 37.6346 111.231 37.4754 111.167C37.3162 111.102 37.1731 111.003 37.0564 110.877C28.4598 101.597 23.5901 89.4704 23.3807 76.8221C22.9031 48.3133 46.2967 24.451 74.8172 24.3807C103.338 24.3103 126.506 47.4695 126.506 75.9432C126.515 88.8965 121.631 101.375 112.83 110.88Z" fill="white"/>
<path d="M74.9437 39.1139C69.1664 39.1139 63.9427 41.2789 60.2308 45.2135C56.5189 49.1481 54.6644 54.5885 55.0834 60.4274C55.933 71.9264 64.8422 81.3014 74.9437 81.3014C85.0453 81.3014 93.9369 71.9264 94.8041 60.4303C95.2377 54.6471 93.3978 49.2565 89.6244 45.2487C85.8978 41.2936 80.683 39.1139 74.9437 39.1139Z" fill="white"/>
</svg>
