<?xml version="1.0" standalone="no"?>
<!DOCTYPE svg PUBLIC "-//W3C//DTD SVG 20010904//EN"
 "http://www.w3.org/TR/2001/REC-SVG-20010904/DTD/svg10.dtd">
<svg version="1.0" xmlns="http://www.w3.org/2000/svg"
 width="512.000000pt" height="512.000000pt" viewBox="0 0 512.000000 512.000000"
 preserveAspectRatio="xMidYMid meet">

<g transform="translate(0.000000,512.000000) scale(0.100000,-0.100000)"
fill="#000000" stroke="none">
<path d="M1 3918 c1 -736 5 -1168 10 -1113 115 1212 1090 2187 2304 2304 56 5
-366 9 -1112 10 l-1203 1 1 -1202z"/>
<path d="M2795 5109 c500 -47 979 -241 1370 -556 129 -104 340 -321 433 -445
208 -278 358 -590 442 -917 27 -107 64 -312 73 -406 2 -22 4 494 5 1148 l2
1187 -1207 -1 c-723 -1 -1172 -5 -1118 -10z"/>
<path d="M1311 4124 c-34 -17 -65 -43 -87 -73 -63 -85 -64 -98 -64 -573 l0
-428 325 0 324 0 3 114 3 113 285 -103 c156 -57 286 -104 287 -104 2 0 3 243
3 540 l0 540 -513 0 -513 0 -53 -26z"/>
<path d="M2740 3610 c0 -297 4 -540 8 -540 4 0 131 45 282 100 151 55 278 100
282 100 4 0 8 -49 8 -110 l0 -110 270 0 270 0 0 550 0 550 -560 0 -560 0 0
-540z"/>
<path d="M1158 2038 c-2 -370 0 -704 4 -741 14 -139 101 -261 228 -321 l65
-31 468 -3 467 -3 0 110 0 110 -443 3 -443 3 -41 27 c-49 32 -78 88 -77 148 1
57 24 101 71 137 l36 28 449 3 448 3 -1 372 0 372 -45 -115 c-25 -63 -48 -118
-53 -122 -4 -5 -27 33 -51 82 l-44 90 -98 -7 c-54 -3 -98 -2 -98 2 0 5 57 107
128 229 70 121 128 223 130 227 2 4 -94 -29 -213 -72 -120 -43 -221 -79 -226
-79 -5 0 -9 50 -9 110 l0 110 -325 0 -325 0 -2 -672z"/>
<path d="M3320 2600 c0 -60 -2 -110 -4 -110 -2 0 -102 36 -222 80 -120 43
-219 78 -221 77 -1 -2 59 -108 133 -236 l135 -234 -104 7 -103 6 -44 -90 c-24
-49 -47 -87 -51 -82 -3 4 -26 57 -49 117 -23 61 -44 112 -46 114 -2 2 -4 -163
-4 -367 l0 -372 559 0 559 0 4 28 c2 15 2 285 0 600 l-4 572 -269 0 -269 0 0
-110z"/>
<path d="M1 1208 l-1 -1208 1193 1 c740 1 1164 5 1117 10 -442 52 -815 185
-1164 417 -276 182 -536 442 -718 718 -234 353 -378 759 -417 1179 -5 54 -9
-395 -10 -1117z"/>
<path d="M5110 2340 c0 -74 -31 -262 -67 -404 -238 -952 -1000 -1683 -1963
-1884 -81 -17 -160 -29 -305 -46 -16 -1 504 -4 1158 -5 l1187 -1 0 1190 c0
655 -2 1190 -5 1190 -3 0 -5 -18 -5 -40z"/>
<path d="M2740 1050 l0 -120 560 0 560 0 0 114 0 113 -82 6 c-46 4 -298 7
-560 7 l-478 0 0 -120z"/>
</g>
</svg>
