<svg width="24" height="24" viewBox="0 0 24 24" fill="none" xmlns="http://www.w3.org/2000/svg">
<path d="M2.3144 15.9507H0.0416718V2.31435C0.0416718 1.71159 0.281119 1.13351 0.707338 0.707292C1.13356 0.281073 1.71163 0.041626 2.3144 0.041626H20.4962V2.31435H2.3144V15.9507ZM12.5417 25.0416C12.2403 25.0416 11.9513 24.9219 11.7381 24.7088C11.525 24.4957 11.4053 24.2066 11.4053 23.9053V20.4962H6.85985C6.25709 20.4962 5.67901 20.2567 5.25279 19.8305C4.82657 19.4043 4.58713 18.8262 4.58713 18.2234V6.85981C4.58713 6.25704 4.82657 5.67897 5.25279 5.25275C5.67901 4.82653 6.25709 4.58708 6.85985 4.58708H22.7689C23.3717 4.58708 23.9498 4.82653 24.376 5.25275C24.8022 5.67897 25.0417 6.25704 25.0417 6.85981V18.2234C25.0417 18.8262 24.8022 19.4043 24.376 19.8305C23.9498 20.2567 23.3717 20.4962 22.7689 20.4962H18.1099L13.9053 24.7121C13.678 24.9166 13.4053 25.0416 13.1099 25.0416H12.5417ZM9.13258 9.13253V11.4053H20.4962V9.13253H9.13258ZM9.13258 13.678V15.9507H18.2235V13.678H9.13258Z" fill="#F8F8F8"/>
</svg>
