<svg width="18" height="24" viewBox="0 0 18 24" fill="none" xmlns="http://www.w3.org/2000/svg">
<path d="M9 20.4C5.97857 18.32 3.72343 16.3 2.23457 14.34C0.745714 12.38 0.000857143 10.46 0 8.58C0 7.16 0.273429 5.9148 0.820286 4.8444C1.36714 3.774 2.06829 2.8792 2.92371 2.16C3.78086 1.44 4.74514 0.9 5.81657 0.54C6.888 0.18 7.94914 0 9 0C10.05 0 11.1107 0.18 12.1821 0.54C13.2536 0.9 14.2179 1.44 15.075 2.16C15.9321 2.88 16.6341 3.7752 17.181 4.8456C17.7279 5.916 18.0009 7.1608 18 8.58C18 10.46 17.2551 12.38 15.7654 14.34C14.2757 16.3 12.0206 18.32 9 20.4ZM9 10.8C9.70714 10.8 10.3127 10.5648 10.8167 10.0944C11.3207 9.624 11.5723 9.0592 11.5714 8.4C11.5714 7.74 11.3194 7.1748 10.8154 6.7044C10.3114 6.234 9.70629 5.9992 9 6C8.29286 6 7.68729 6.2352 7.18329 6.7056C6.67929 7.176 6.42771 7.7408 6.42857 8.4C6.42857 9.06 6.68057 9.6252 7.18457 10.0956C7.68857 10.566 8.29371 10.8008 9 10.8ZM0 24V21.6H18V24H0Z" fill="#666666"/>
</svg>
