<svg width="78" height="78" viewBox="0 0 78 78" fill="none" xmlns="http://www.w3.org/2000/svg">
<g filter="url(#filter0_d_432_125)">
<path d="M34.1 41.3L26.575 33.775C25.9333 33.1333 25.1167 32.8125 24.125 32.8125C23.1333 32.8125 22.3167 33.1333 21.675 33.775C21.0333 34.4167 20.7125 35.2333 20.7125 36.225C20.7125 37.2167 21.0333 38.0333 21.675 38.675L31.65 48.65C32.35 49.35 33.1667 49.7 34.1 49.7C35.0333 49.7 35.85 49.35 36.55 48.65L56.325 28.875C56.9667 28.2333 57.2875 27.4167 57.2875 26.425C57.2875 25.4333 56.9667 24.6167 56.325 23.975C55.6833 23.3333 54.8667 23.0125 53.875 23.0125C52.8833 23.0125 52.0667 23.3333 51.425 23.975L34.1 41.3ZM39 70C34.1583 70 29.6083 69.0807 25.35 67.242C21.0917 65.4033 17.3875 62.9102 14.2375 59.7625C11.0875 56.6125 8.59433 52.9083 6.758 48.65C4.92167 44.3917 4.00233 39.8417 4 35C4 30.1583 4.91933 25.6083 6.758 21.35C8.59667 17.0917 11.0898 13.3875 14.2375 10.2375C17.3875 7.0875 21.0917 4.59433 25.35 2.758C29.6083 0.921667 34.1583 0.00233333 39 0C43.8417 0 48.3917 0.919333 52.65 2.758C56.9083 4.59667 60.6125 7.08983 63.7625 10.2375C66.9125 13.3875 69.4068 17.0917 71.2455 21.35C73.0842 25.6083 74.0023 30.1583 74 35C74 39.8417 73.0807 44.3917 71.242 48.65C69.4033 52.9083 66.9102 56.6125 63.7625 59.7625C60.6125 62.9125 56.9083 65.4068 52.65 67.2455C48.3917 69.0842 43.8417 70.0023 39 70Z" fill="#F7941E"/>
</g>
<defs>
<filter id="filter0_d_432_125" x="0" y="0" width="78" height="78" filterUnits="userSpaceOnUse" color-interpolation-filters="sRGB">
<feFlood flood-opacity="0" result="BackgroundImageFix"/>
<feColorMatrix in="SourceAlpha" type="matrix" values="0 0 0 0 0 0 0 0 0 0 0 0 0 0 0 0 0 0 127 0" result="hardAlpha"/>
<feOffset dy="4"/>
<feGaussianBlur stdDeviation="2"/>
<feComposite in2="hardAlpha" operator="out"/>
<feColorMatrix type="matrix" values="0 0 0 0 0 0 0 0 0 0 0 0 0 0 0 0 0 0 0.25 0"/>
<feBlend mode="normal" in2="BackgroundImageFix" result="effect1_dropShadow_432_125"/>
<feBlend mode="normal" in="SourceGraphic" in2="effect1_dropShadow_432_125" result="shape"/>
</filter>
</defs>
</svg>
