<svg width="24" height="24" viewBox="0 0 24 24" fill="none" xmlns="http://www.w3.org/2000/svg">
<path d="M22.6789 1.52311C22.5014 1.4809 22.3147 1.50368 22.1525 1.58732L20.9999 2.16295L19.8374 1.5817C19.7332 1.52964 19.6184 1.50253 19.502 1.50253C19.3855 1.50253 19.2707 1.52964 19.1666 1.5817L17.9896 2.16342L16.828 1.5817C16.7235 1.52925 16.6083 1.50194 16.4914 1.50194C16.3746 1.50194 16.2593 1.52925 16.1549 1.5817L14.9999 2.16154L13.8538 1.58311C13.7496 1.5303 13.6346 1.50255 13.5178 1.50206C13.401 1.50157 13.2857 1.52836 13.1811 1.58029L11.9999 2.16389L10.8374 1.58123C10.7331 1.52919 10.6181 1.5021 10.5015 1.5021C10.3849 1.5021 10.27 1.52919 10.1656 1.58123L8.99986 2.16295L7.83549 1.58123C7.68538 1.50599 7.51436 1.48329 7.34983 1.51677C7.18529 1.55026 7.03675 1.63799 6.92799 1.76592C6.81076 1.90563 6.74756 2.08277 6.74986 2.26514V13.502L6.75221 13.5044H15.7499C16.1477 13.5044 16.5292 13.6624 16.8105 13.9437C17.0918 14.225 17.2499 14.6065 17.2499 15.0044V19.877C17.2499 21.3269 18.8 22.502 20.2499 22.502H20.8124C21.4588 22.502 22.0788 22.2452 22.5359 21.7881C22.9931 21.331 23.2499 20.711 23.2499 20.0645V2.25201C23.25 2.08415 23.1938 1.92109 23.0903 1.78894C22.9868 1.65679 22.8419 1.56318 22.6789 1.52311ZM19.4999 11.252H13.5233C13.1183 11.252 12.7686 10.9408 12.7508 10.5358C12.7462 10.4345 12.7622 10.3335 12.7978 10.2386C12.8334 10.1437 12.8878 10.0571 12.9578 9.98382C13.0279 9.91057 13.112 9.85227 13.2051 9.81243C13.2983 9.77259 13.3985 9.75204 13.4999 9.75201H19.4764C19.8814 9.75201 20.2311 10.0633 20.2489 10.4683C20.2535 10.5695 20.2375 10.6706 20.2019 10.7654C20.1663 10.8603 20.1119 10.947 20.0419 11.0202C19.9719 11.0935 19.8878 11.1518 19.7946 11.1916C19.7014 11.2314 19.6012 11.252 19.4999 11.252ZM19.4999 7.50201H10.5233C10.1183 7.50201 9.76861 7.19076 9.7508 6.78576C9.74624 6.68455 9.76224 6.58346 9.79782 6.4886C9.83341 6.39373 9.88784 6.30706 9.95785 6.23382C10.0279 6.16057 10.112 6.10227 10.2051 6.06243C10.2983 6.02259 10.3985 6.00204 10.4999 6.00201H19.4764C19.8814 6.00201 20.2311 6.31326 20.2489 6.71826C20.2535 6.81948 20.2375 6.92057 20.2019 7.01543C20.1663 7.11029 20.1119 7.19696 20.0419 7.27021C19.9719 7.34345 19.8878 7.40176 19.7946 7.4416C19.7014 7.48144 19.6012 7.50199 19.4999 7.50201Z" fill="#666666"/>
<path d="M15.75 19.8759V15.7509C15.75 15.5519 15.671 15.3612 15.5303 15.2205C15.3897 15.0799 15.1989 15.0009 15 15.0009H2.25C1.85215 15.0021 1.47098 15.1608 1.18988 15.4424C0.908777 15.7239 0.750618 16.1053 0.75 16.5032C0.75 18.8727 1.02094 19.858 1.42781 20.608C2.11828 21.8816 3.36844 22.5009 5.25 22.5009H16.7663C16.8032 22.5009 16.8394 22.49 16.8702 22.4695C16.901 22.449 16.9251 22.4199 16.9394 22.3857C16.9537 22.3516 16.9575 22.314 16.9505 22.2777C16.9435 22.2414 16.9258 22.208 16.8998 22.1816C16.4564 21.7368 15.75 21.1415 15.75 19.8759Z" fill="#666666"/>
</svg>
