<?xml version="1.0" standalone="no"?>
<!DOCTYPE svg PUBLIC "-//W3C//DTD SVG 20010904//EN"
 "http://www.w3.org/TR/2001/REC-SVG-20010904/DTD/svg10.dtd">
<svg version="1.0" xmlns="http://www.w3.org/2000/svg"
 width="512.000000pt" height="512.000000pt" viewBox="0 0 512.000000 512.000000"
 preserveAspectRatio="xMidYMid meet">

<g transform="translate(0.000000,512.000000) scale(0.100000,-0.100000)"
fill="#000000" stroke="none">
<path d="M1209 4468 c-23 -87 -22 -88 63 -117 61 -21 75 -29 69 -41 -5 -8 -19
-44 -31 -80 -12 -36 -26 -70 -31 -76 -5 -6 -20 -41 -33 -77 l-24 -65 112 -31
c272 -74 429 -112 436 -104 10 11 90 333 90 361 0 30 -27 81 -54 103 -29 24
-76 39 -336 104 -124 31 -231 58 -237 60 -8 3 -17 -12 -24 -37z"/>
<path d="M1159 3853 c-6 -16 -28 -77 -49 -138 -21 -60 -59 -168 -85 -240 -26
-71 -50 -141 -55 -155 -5 -14 -29 -82 -54 -152 -25 -71 -43 -128 -39 -128 3 0
0 -6 -6 -14 -7 -8 -14 -23 -16 -35 -2 -11 -20 -66 -39 -123 -19 -57 -49 -152
-66 -213 -17 -60 -38 -132 -46 -160 -8 -27 -16 -54 -18 -60 -1 -5 -6 -21 -11
-35 -27 -81 -202 -776 -197 -782 6 -6 152 -45 542 -147 71 -19 117 -27 120
-20 4 5 19 59 35 119 l28 109 21 -32 c40 -60 70 -67 272 -67 l181 0 6 121 c3
67 3 217 0 335 l-6 214 -159 0 c-87 0 -158 3 -158 7 0 10 111 450 251 993 17
63 39 140 49 171 10 31 21 73 24 95 2 21 16 81 30 132 13 50 23 92 21 92 -3 0
-127 32 -278 70 -150 39 -277 70 -280 70 -4 0 -12 -12 -18 -27z"/>
<path d="M1819 2018 c-2 -128 -2 -279 -1 -335 l4 -103 84 0 84 0 0 335 0 335
-84 0 -84 0 -3 -232z"/>
<path d="M2127 2099 c-4 -84 -7 -235 -7 -336 l0 -183 1035 0 1035 0 0 310 c0
171 -3 310 -7 311 -5 0 -15 2 -23 4 -8 1 -44 6 -80 9 -36 4 -94 12 -130 18
-42 7 -379 12 -941 15 l-876 4 -6 -152z"/>
<path d="M4980 2171 c0 -44 -4 -82 -8 -85 -5 -3 -56 3 -113 13 -57 11 -126 22
-153 26 -27 3 -53 8 -56 10 -12 7 -20 -139 -20 -352 l0 -203 188 0 c218 0 242
7 280 80 21 43 22 54 22 317 l0 273 -70 0 -70 0 0 -79z"/>
<path d="M4326 2014 c-3 -91 -3 -225 0 -299 l7 -135 84 0 83 0 0 284 0 284
-27 10 c-16 6 -53 13 -84 16 l-56 5 -7 -165z"/>
<path d="M413 1400 c-12 -44 -18 -82 -14 -84 4 -3 122 -35 262 -71 139 -37
285 -75 323 -86 39 -10 72 -16 75 -13 3 3 15 41 27 85 l21 79 -41 11 c-23 5
-72 19 -111 29 -92 25 -508 130 -515 130 -3 0 -15 -36 -27 -80z"/>
<path d="M357 1173 c-14 -23 -117 -447 -110 -454 16 -15 479 -132 543 -137 60
-4 68 -2 98 23 45 37 46 42 96 234 39 151 42 171 28 175 -75 22 -519 136 -624
160 -15 3 -29 3 -31 -1z"/>
<path d="M1352 928 c10 -183 130 -307 313 -322 74 -6 73 -6 -17 31 -55 23
-126 96 -155 160 -17 36 -28 82 -32 132 l-6 76 -54 3 -54 3 5 -83z"/>
<path d="M1974 975 c-9 -49 12 -151 42 -201 34 -59 116 -130 172 -148 26 -8
74 -17 107 -21 51 -4 56 -3 35 7 -14 6 -45 21 -69 32 -24 11 -64 44 -90 72
-56 61 -91 154 -91 239 l0 55 -50 0 c-48 0 -49 -1 -56 -35z"/>
</g>
</svg>
