<svg width="33" height="21" viewBox="0 0 33 21" fill="none" xmlns="http://www.w3.org/2000/svg">
<path d="M23.5341 11.6096C21.9911 17.4085 16.7063 21 16.7063 21C16.7063 21 13.923 15.1894 15.4659 9.39045C17.0089 3.59146 22.2937 0 22.2937 0C22.2937 0 25.077 5.81057 23.5341 11.6096Z" fill="#F7941E"/>
<path d="M9.46594 11.6096C11.0089 17.4085 16.2937 21 16.2937 21C16.2937 21 19.077 15.1894 17.5341 9.39045C15.9911 3.59146 10.7063 0 10.7063 0C10.7063 0 7.92302 5.81057 9.46594 11.6096Z" fill="#004A8D"/>
<path d="M11.0421 10.4904C15.4603 14.6326 16 21 16 21C16 21 9.37621 20.6517 4.95793 16.5096C0.539654 12.3674 0 6 0 6C0 6 6.62379 6.3483 11.0421 10.4904Z" fill="#3F3D56"/>
<path d="M21.2678 10.4904C16.5734 14.6326 16 21 16 21C16 21 23.0378 20.6517 27.7322 16.5096C32.4266 12.3674 33 6 33 6C33 6 25.9622 6.3483 21.2678 10.4904Z" fill="#3F3D56"/>
</svg>
