<svg width="337" height="217" viewBox="0 0 337 217" fill="none" xmlns="http://www.w3.org/2000/svg">
<g clip-path="url(#clip0_12_555)">
<path d="M327.063 210.158H9.41141V210.814H327.063V210.158Z" fill="#3F3D56"/>
<path d="M34.3955 91.0704L34.1292 91.6749L326.698 210.431L326.964 209.826L34.3955 91.0704Z" fill="#3F3D56"/>
<path d="M327.063 91.0156H9.41141V91.672H327.063V91.0156Z" fill="#3F3D56"/>
<path d="M283.98 105.293C284.024 119.181 281.216 132.942 275.717 145.789C270.218 158.635 262.135 170.315 251.931 180.162C250.806 181.248 249.656 182.31 248.481 183.346C247.065 184.599 245.613 185.815 244.125 186.992C243.841 187.219 243.557 187.442 243.27 187.662C237.39 192.236 231.022 196.2 224.272 199.487C223.872 199.681 223.472 199.875 223.069 200.065C222.429 200.367 221.783 200.662 221.137 200.951C197.214 211.637 170.009 213.409 144.801 205.924C100.669 192.775 68.565 152.697 68.565 105.293C68.565 47.1956 116.787 0.100067 176.272 0.100067C235.758 0.100067 283.98 47.1956 283.98 105.293Z" fill="#F7941E"/>
<path d="M200.253 83.2259L200.339 83.2226L200.002 82.5117C199.623 81.5048 199.16 80.5288 198.617 79.5935L188.723 58.742C188.408 58.0765 187.896 57.5139 187.252 57.1234C186.608 56.7328 185.859 56.5313 185.098 56.5435L172.568 56.7438C171.758 56.7568 170.972 57.0109 170.319 57.471C169.665 57.9311 169.177 58.5746 168.921 59.3126L161.044 82.0211C160.785 82.657 160.56 83.3053 160.371 83.9635L160.103 84.7345L160.166 84.7322C159.436 87.7269 159.437 90.8429 160.167 93.8374C160.898 96.8319 162.34 99.6239 164.379 101.996C166.419 104.368 169.002 106.255 171.926 107.512C174.851 108.768 178.038 109.359 181.24 109.239C184.441 109.119 187.571 108.29 190.384 106.818C193.197 105.346 195.619 103.271 197.459 100.753C199.299 98.2351 200.509 95.3435 200.993 92.3033C201.478 89.2632 201.225 86.1566 200.253 83.2259H200.253Z" fill="#3F3D56"/>
<path d="M176.903 61.8432L172.96 82.5319L173.405 82.61L177.348 61.9213L176.903 61.8432Z" fill="#F7941E"/>
<path d="M181.641 61.7671L181.199 61.8593L185.853 82.4112L186.295 82.319L181.641 61.7671Z" fill="#F7941E"/>
<path d="M171.203 46.561L187.258 46.3043C187.378 46.3024 187.493 46.3463 187.58 46.4263C187.666 46.5064 187.715 46.616 187.717 46.7312C187.719 46.8463 187.674 46.9575 187.59 47.0403C187.507 47.123 187.393 47.1706 187.273 47.1725L171.218 47.4293C171.158 47.4302 171.099 47.4199 171.044 47.399C170.989 47.378 170.938 47.3469 170.896 47.3072C170.853 47.2676 170.819 47.2203 170.795 47.168C170.772 47.1157 170.759 47.0594 170.758 47.0024C170.757 46.9454 170.768 46.8887 170.789 46.8357C170.811 46.7827 170.844 46.7343 170.885 46.6933C170.926 46.6523 170.976 46.6195 171.03 46.5968C171.085 46.5742 171.143 46.562 171.203 46.561Z" fill="#3F3D56"/>
<path d="M171.372 49.8151L187.427 49.5584C187.547 49.5565 187.663 49.6004 187.749 49.6804C187.836 49.7605 187.885 49.8701 187.887 49.9853C187.889 50.1004 187.843 50.2116 187.76 50.2944C187.677 50.3771 187.562 50.4247 187.442 50.4266L171.387 50.6834C171.267 50.6853 171.151 50.6414 171.065 50.5613C170.979 50.4813 170.929 50.3716 170.927 50.2565C170.925 50.1413 170.971 50.0302 171.055 49.9474C171.138 49.8646 171.252 49.817 171.372 49.8151Z" fill="#3F3D56"/>
<path d="M171.542 53.0692L187.597 52.8125C187.717 52.8106 187.833 52.8545 187.919 52.9345C188.005 53.0146 188.055 53.1242 188.057 53.2394C188.059 53.3545 188.013 53.4657 187.93 53.5484C187.846 53.6312 187.732 53.6788 187.612 53.6807L171.557 53.9375C171.437 53.9394 171.321 53.8955 171.235 53.8154C171.149 53.7354 171.099 53.6257 171.097 53.5106C171.095 53.3954 171.141 53.2842 171.224 53.2015C171.308 53.1187 171.422 53.0711 171.542 53.0692Z" fill="#3F3D56"/>
<path d="M179.176 43.3362C175.992 43.3871 173.44 45.1321 173.476 47.2337L185.009 47.0493C184.972 44.9477 182.361 43.2852 179.176 43.3362Z" fill="#3F3D56"/>
<path d="M180.951 85.5872C181.58 85.6281 182.176 85.8726 182.642 86.2809C182.761 86.3758 182.878 86.4753 182.996 86.5749C183.368 86.9476 183.824 87.2339 184.329 87.4118C185.434 87.7013 186.525 86.8626 187.445 86.0038L187.761 86.3151C186.748 87.2595 185.535 88.1777 184.209 87.8308C183.637 87.6373 183.119 87.3187 182.697 86.9003C182.583 86.8035 182.469 86.7071 182.353 86.615C181.975 86.3141 181.245 85.846 180.597 86.0887C180.327 86.2148 180.088 86.3922 179.892 86.6102C179.741 86.763 179.578 86.9042 179.404 87.0326C179.047 87.2754 178.624 87.4116 178.187 87.424C177.75 87.4365 177.32 87.3247 176.949 87.1027C176.816 87.0174 176.687 86.9251 176.565 86.8262C176.363 86.6346 176.113 86.4977 175.838 86.4293C175.454 86.3776 175.105 86.641 174.735 86.9195C174.385 87.2461 173.937 87.4596 173.455 87.5298C173.438 87.5306 173.422 87.5312 173.405 87.5315C172.504 87.5459 171.932 86.6805 171.579 86.0226L171.981 85.8237C172.461 86.718 172.925 87.1257 173.431 87.0962C173.818 87.0249 174.175 86.8445 174.455 86.578C174.883 86.2556 175.326 85.9223 175.901 85.9993C176.258 86.0741 176.587 86.2436 176.849 86.4887C176.959 86.5774 177.074 86.6604 177.193 86.7373C177.488 86.9103 177.829 86.9972 178.174 86.9874C178.519 86.9775 178.854 86.8713 179.137 86.6818C179.292 86.5666 179.438 86.44 179.572 86.3033C179.81 86.0411 180.103 85.8302 180.432 85.6843C180.598 85.6224 180.773 85.5896 180.951 85.5872Z" fill="#F7941E"/>
<path d="M179.686 0H179.216V43.3184H179.686V0Z" fill="#3F3D56"/>
<path d="M321.556 75.053C318.69 85.2229 308.873 91.5214 308.873 91.5214C308.873 91.5214 303.703 81.3312 306.569 71.1612C309.435 60.9913 319.252 54.6928 319.252 54.6928C319.252 54.6928 324.423 64.883 321.556 75.053Z" fill="#F7941E"/>
<path d="M295.483 75.053C298.349 85.2229 308.166 91.5214 308.166 91.5214C308.166 91.5214 313.336 81.3312 310.47 71.1612C307.604 60.9913 297.787 54.6928 297.787 54.6928C297.787 54.6928 292.617 64.883 295.483 75.053Z" fill="#004A8D"/>
<path d="M299.694 72.8673C307.559 80.2162 308.52 91.5131 308.52 91.5131C308.52 91.5131 296.729 90.8951 288.865 83.5463C281 76.1974 280.039 64.9005 280.039 64.9005C280.039 64.9005 291.83 65.5185 299.694 72.8673Z" fill="#3F3D56"/>
<path d="M317.345 72.8673C309.48 80.2162 308.52 91.5131 308.52 91.5131C308.52 91.5131 320.31 90.8951 328.175 83.5463C336.039 76.1974 337 64.9005 337 64.9005C337 64.9005 325.209 65.5185 317.345 72.8673Z" fill="#3F3D56"/>
<path d="M41.5171 193.867C38.651 204.037 28.834 210.335 28.834 210.335C28.834 210.335 23.6638 200.145 26.5299 189.975C29.396 179.805 39.2131 173.507 39.2131 173.507C39.2131 173.507 44.3832 183.697 41.5171 193.867Z" fill="#F7941E"/>
<path d="M15.4436 193.867C18.3097 204.037 28.1267 210.335 28.1267 210.335C28.1267 210.335 33.2969 200.145 30.4308 189.975C27.5647 179.805 17.7477 173.507 17.7477 173.507C17.7477 173.507 12.5775 183.697 15.4436 193.867Z" fill="#004A8D"/>
<path d="M19.6551 191.681C27.5197 199.03 28.4804 210.327 28.4804 210.327C28.4804 210.327 16.6899 209.709 8.82524 202.36C0.960604 195.011 0 183.714 0 183.714C0 183.714 11.7905 184.332 19.6551 191.681Z" fill="#3F3D56"/>
<path d="M37.3056 191.681C29.441 199.03 28.4804 210.327 28.4804 210.327C28.4804 210.327 40.2709 209.709 48.1355 202.36C56.0001 195.011 56.9607 183.714 56.9607 183.714C56.9607 183.714 45.1702 184.332 37.3056 191.681Z" fill="#3F3D56"/>
<path d="M229.209 99.9162C232.841 99.9162 235.786 97.0897 235.786 93.6032C235.786 90.1166 232.841 87.2902 229.209 87.2902C225.577 87.2902 222.632 90.1166 222.632 93.6032C222.632 97.0897 225.577 99.9162 229.209 99.9162Z" fill="#2F2E41"/>
<path d="M222.162 90.8976C222.163 89.3405 222.762 87.8385 223.846 86.6801C224.93 85.5217 226.422 84.7887 228.034 84.6219C227.116 84.5256 226.187 84.6161 225.307 84.8876C224.428 85.1591 223.617 85.6054 222.93 86.1975C222.242 86.7896 221.692 87.5141 221.315 88.324C220.938 89.1338 220.744 90.0107 220.744 90.8976C220.744 91.7845 220.938 92.6614 221.315 93.4712C221.692 94.281 222.242 95.0056 222.93 95.5977C223.617 96.1898 224.428 96.6361 225.307 96.9076C226.187 97.179 227.116 97.2696 228.034 97.1733C226.422 97.0065 224.93 96.2734 223.846 95.1151C222.762 93.9567 222.163 92.4546 222.162 90.8976Z" fill="#2F2E41"/>
<path d="M222.632 93.6031C222.632 93.6031 221.611 98.1125 227.993 99.9162L222.632 93.6031Z" fill="#004A8D"/>
<path d="M231.929 136.484C244.123 136.484 254.008 126.995 254.008 115.29C254.008 103.585 244.123 94.0967 231.929 94.0967C219.735 94.0967 209.85 103.585 209.85 115.29C209.85 126.995 219.735 136.484 231.929 136.484Z" fill="#2F2E41"/>
<path d="M244.125 186.992C243.841 187.219 243.557 187.442 243.27 187.662C237.39 192.236 231.022 196.2 224.272 199.487C223.872 199.681 223.472 199.875 223.069 200.065C222.429 200.367 221.783 200.662 221.137 200.951L209.819 197.331L209.949 194.728V194.718L210.441 184.793L210.609 181.399L244.125 186.992Z" fill="#A0616A"/>
<path d="M223.069 200.065C222.429 200.367 221.783 200.662 221.137 200.951C216.716 202.935 212.156 204.621 207.49 205.996C207.467 205.93 207.453 205.862 207.449 205.792L209.819 194.676L209.949 194.728L223.069 200.065Z" fill="#2F2E41"/>
<path d="M226.418 137.776C234.493 137.776 241.039 131.492 241.039 123.741C241.039 115.99 234.493 109.706 226.418 109.706C218.342 109.706 211.796 115.99 211.796 123.741C211.796 131.492 218.342 137.776 226.418 137.776Z" fill="#A0616A"/>
<path d="M238.273 124.5C238.273 124.5 240.644 135.879 244.991 138.535L220.885 165.846L211.796 157.501L218.514 146.121C218.514 146.121 226.022 141.948 223.651 136.259L238.273 124.5Z" fill="#A0616A"/>
<path d="M266.88 162.189C262.595 168.686 257.583 174.713 251.931 180.162C251.688 175.075 251.162 170.88 250.129 169.639C250.126 169.639 250.124 169.638 250.122 169.636L237.481 165.845C237.481 165.845 240.247 140.809 246.966 139.673C246.966 139.673 247.941 139.864 249.455 140.304C254.338 141.715 264.822 145.693 266.33 154.085C266.758 156.766 266.943 159.477 266.88 162.189Z" fill="#A0616A"/>
<path d="M218.514 146.121C218.514 146.121 206.659 145.742 199.15 154.846C191.642 163.949 173.464 170.777 173.464 170.777L128.019 187.847C128.019 187.847 119.72 173.812 114.583 178.743C109.446 183.674 124.067 196.192 130.785 194.675C137.503 193.157 178.206 181.398 178.206 181.398L210.611 167.363L218.514 146.121Z" fill="#A0616A"/>
<path d="M250.129 169.639L248.481 183.346C247.065 184.599 245.613 185.815 244.125 186.992C243.841 187.219 243.557 187.442 243.27 187.662C231.86 184.304 213.98 184.678 210.441 184.793C210.038 184.803 209.819 184.813 209.819 184.813L209.426 176.847C205.634 175.636 204.389 172.987 204.355 170.073C204.297 164.788 208.239 158.638 208.239 158.638C208.947 157.958 214.237 148.332 215.331 146.336C215.457 146.103 215.529 145.975 215.529 145.975L220.272 144.839C220.272 144.839 220.258 144.876 220.231 144.941C219.807 146.08 216.121 156.383 222.467 156.741C228.711 157.095 242.292 140.264 244.162 137.904C244.302 137.727 244.378 137.632 244.378 137.632L249.517 140.287C249.496 140.294 249.476 140.297 249.455 140.304C246.316 141.141 243.41 148.397 243.41 148.397C235.214 162.261 249.763 169.462 250.122 169.636C250.124 169.638 250.126 169.639 250.129 169.639Z" fill="#D0CDE1"/>
<path d="M227.212 107.267C219.428 107.267 213.119 110.8 213.119 115.158C213.119 117.108 214.387 118.89 216.481 120.267L219.194 118.38L218.456 121.336C218.762 121.472 219.075 121.604 219.401 121.726L223.454 117.187V122.763C224.697 122.954 225.953 123.05 227.212 123.049C234.995 123.049 241.305 119.516 241.305 115.158C241.305 110.8 234.995 107.267 227.212 107.267Z" fill="#2F2E41"/>
<path d="M256.081 109.779C259.713 109.779 262.658 106.952 262.658 103.466C262.658 99.979 259.713 97.1526 256.081 97.1526C252.449 97.1526 249.504 99.979 249.504 103.466C249.504 106.952 252.449 109.779 256.081 109.779Z" fill="#2F2E41"/>
<path d="M249.034 100.76C249.034 99.203 249.634 97.701 250.718 96.5426C251.802 95.3842 253.294 94.6511 254.906 94.4843C254.672 94.4599 254.437 94.4475 254.202 94.447C253.307 94.4458 252.422 94.6196 251.601 94.9578C250.779 95.296 250.037 95.7916 249.422 96.4142C248.806 97.0367 248.329 97.7733 248.02 98.5787C247.712 99.3842 247.577 100.242 247.625 101.099C247.673 101.956 247.902 102.795 248.3 103.564C248.697 104.333 249.253 105.016 249.934 105.572C250.616 106.127 251.408 106.544 252.263 106.795C253.118 107.047 254.017 107.129 254.906 107.036C253.294 106.869 251.802 106.136 250.718 104.978C249.634 103.819 249.034 102.317 249.034 100.76Z" fill="#2F2E41"/>
<path d="M249.504 103.466C249.504 103.466 248.483 107.975 254.865 109.779L249.504 103.466Z" fill="#004A8D"/>
<path d="M241.632 125.068C242.262 125.068 242.773 123.965 242.773 122.603C242.773 121.241 242.262 120.137 241.632 120.137C241.001 120.137 240.49 121.241 240.49 122.603C240.49 123.965 241.001 125.068 241.632 125.068Z" fill="#A0616A"/>
<path d="M115.634 132.141L98.3058 136.171L98.2494 136.184L96.3658 137.821L95.8236 138.292L94.6614 138.089L92.6039 137.732L94.0377 133.088L94.3065 124.228L93.3208 118.809L98.787 115.196C98.787 115.196 109.451 114.594 115.634 132.141Z" fill="#D0CDE1"/>
<path opacity="0.1" d="M98.3058 136.171C98.071 136.652 98.563 136.335 98.2942 136.829L95.7851 137.603L94.6614 138.089L92.6039 137.732L94.0377 133.088L94.3065 124.228L93.3208 118.809L98.787 115.196C98.787 115.196 104.654 123.172 98.3058 136.171Z" fill="black"/>
<path d="M136.065 119.411C136.065 119.411 113.304 129.561 104.074 131.109C94.8442 132.658 95.6507 141.517 95.6507 141.517L147.356 133.776C147.356 133.776 145.564 125.776 136.065 119.411Z" fill="#D0CDE1"/>
<path d="M92.1559 117.691C92.1559 117.691 96.0987 126.894 91.7078 138.335L96.8156 140.571L98.787 138.335L98.8318 138.12L93.4104 137.646C93.4104 137.646 97.8909 126.12 94.2169 118.121C94.2169 118.121 93.4104 116.4 92.1559 117.691Z" fill="#004A8D"/>
<path d="M167.339 185.902C147.177 181.601 128.403 190.504 128.403 190.504L128.352 190.46L120.876 184.052L91.663 138.292L98.787 138.335C118.591 126.98 146.46 128.529 146.46 128.529C158.468 141.603 167.339 185.902 167.339 185.902Z" fill="#3F3D56"/>
<path opacity="0.1" d="M128.352 190.46L120.876 184.052L91.663 138.292L98.787 138.335C98.787 138.335 127.181 174.332 128.352 190.46Z" fill="black"/>
<path d="M131.633 154.755C137.737 152.958 141.72 148.482 140.53 144.758C139.34 141.033 133.427 139.471 127.324 141.268C121.22 143.065 117.237 147.541 118.427 151.265C119.617 154.989 125.53 156.552 131.633 154.755Z" fill="#D0CDE1"/>
<path d="M9.50335 97.2016C13.0913 97.2016 16 94.4096 16 90.9655C16 87.5214 13.0913 84.7294 9.50335 84.7294C5.91536 84.7294 3.00671 87.5214 3.00671 90.9655C3.00671 94.4096 5.91536 97.2016 9.50335 97.2016Z" fill="#3F3D56"/>
<path d="M326.813 217C330.401 217 333.309 214.208 333.309 210.764C333.309 207.32 330.401 204.528 326.813 204.528C323.225 204.528 320.316 207.32 320.316 210.764C320.316 214.208 323.225 217 326.813 217Z" fill="#3F3D56"/>
<path d="M37.8834 96.5452C40.716 96.5452 43.0123 94.341 43.0123 91.622C43.0123 88.9029 40.716 86.6987 37.8834 86.6987C35.0508 86.6987 32.7545 88.9029 32.7545 91.622C32.7545 94.341 35.0508 96.5452 37.8834 96.5452Z" fill="#004A8D"/>
<path d="M326.813 96.5452C329.645 96.5452 331.942 94.341 331.942 91.622C331.942 88.9029 329.645 86.6987 326.813 86.6987C323.98 86.6987 321.684 88.9029 321.684 91.622C321.684 94.341 323.98 96.5452 326.813 96.5452Z" fill="#F7941E"/>
<path d="M9.50336 215.031C12.336 215.031 14.6323 212.827 14.6323 210.107C14.6323 207.388 12.336 205.184 9.50336 205.184C6.67073 205.184 4.37444 207.388 4.37444 210.107C4.37444 212.827 6.67073 215.031 9.50336 215.031Z" fill="#F7941E"/>
</g>
<defs>
<clipPath id="clip0_12_555">
<rect width="337" height="217" fill="white"/>
</clipPath>
</defs>
</svg>
