<svg width="376" height="423" viewBox="0 0 376 423" fill="none" xmlns="http://www.w3.org/2000/svg">
<path d="M251.157 397.869H126.294C156.678 384.391 172.161 367.751 172.743 347.949H204.708C204.708 367.751 220.191 384.391 251.157 397.869Z" fill="#EB9E20"/>
<path d="M204.72 330.477H172.755C171.494 313.784 162.991 298.181 148.781 288.045H228.693C214.553 298.181 206.042 313.784 204.72 330.477Z" fill="#EB9E20"/>
<path d="M126.306 397.869H251.169C258.065 397.869 263.655 403.457 263.655 410.349C263.655 417.242 258.065 422.829 251.169 422.829H126.306C119.41 422.829 113.82 417.242 113.82 410.349C113.82 403.457 119.41 397.869 126.306 397.869Z" fill="#FFD15C"/>
<path d="M173.754 350.445H203.721C206.479 350.445 208.715 352.68 208.715 355.437V360.429C208.715 363.186 206.479 365.421 203.721 365.421H173.754C170.996 365.421 168.759 363.186 168.759 360.429V355.437C168.759 352.68 170.996 350.445 173.754 350.445Z" fill="#F7B64B"/>
<path d="M173.754 313.005H203.721C206.479 313.005 208.715 315.24 208.715 317.997V322.989C208.715 325.746 206.479 327.981 203.721 327.981H173.754C170.996 327.981 168.759 325.746 168.759 322.989V317.997C168.759 315.24 170.996 313.005 173.754 313.005Z" fill="#F7B64B"/>
<path d="M188.737 360.429C200.46 360.429 209.964 350.93 209.964 339.213C209.964 327.496 200.46 317.997 188.737 317.997C177.014 317.997 167.511 327.496 167.511 339.213C167.511 350.93 177.014 360.429 188.737 360.429Z" fill="#FFDE5C"/>
<path d="M181.246 340.461C184.694 340.461 187.489 337.667 187.489 334.221C187.489 330.775 184.694 327.981 181.246 327.981C177.797 327.981 175.002 330.775 175.002 334.221C175.002 337.667 177.797 340.461 181.246 340.461Z" fill="#FFEB9F"/>
<path d="M274.892 172.802C274.892 121.218 337.324 129.839 337.324 172.802C337.324 215.765 274.892 232.532 274.892 253.045C274.892 257.196 276.245 260.205 278.95 262.074" stroke="white" stroke-width="32" stroke-linecap="round" stroke-linejoin="round"/>
<path d="M102.582 172.802C102.582 121.218 40.1509 129.839 40.1509 172.802C40.1509 215.765 102.582 232.532 102.582 253.045C102.582 257.196 101.229 260.205 98.5241 262.074" stroke="white" stroke-width="32" stroke-linecap="round" stroke-linejoin="round"/>
<path d="M274.892 172.802C274.892 121.218 337.324 129.839 337.324 172.802C337.324 215.765 274.892 232.532 274.892 253.045C274.892 257.196 276.245 260.205 278.95 262.074" stroke="#FFDE5C" stroke-width="32" stroke-linecap="round" stroke-linejoin="round"/>
<path d="M102.582 172.802C102.582 121.218 40.1509 129.839 40.1509 172.802C40.1509 215.765 102.582 232.532 102.582 253.045C102.582 257.196 101.229 260.205 98.5241 262.074" stroke="#FFDE5C" stroke-width="32" stroke-linecap="round" stroke-linejoin="round"/>
<path d="M274.892 172.802C274.892 121.218 337.324 129.839 337.324 172.802C337.324 215.765 274.892 232.532 274.892 253.045C274.892 257.196 276.245 260.205 278.95 262.074" stroke="#FDC452" stroke-width="32" stroke-linecap="round" stroke-linejoin="round"/>
<path d="M102.582 172.802C102.582 121.218 40.1509 129.839 40.1509 172.802C40.1509 215.765 102.582 232.532 102.582 253.045C102.582 257.196 101.229 260.205 98.5241 262.074" stroke="#FDC452" stroke-width="32" stroke-linecap="round" stroke-linejoin="round"/>
<path d="M115.068 107.945H262.406C266.544 107.945 269.898 111.298 269.898 115.433V121.673C269.898 122.362 269.339 122.921 268.649 122.921H266.152C265.463 122.921 264.904 123.48 264.904 124.169V129.161C264.904 129.85 265.463 130.409 266.152 130.409H268.649C269.339 130.409 269.898 130.968 269.898 131.657V221.513C269.898 266.315 233.561 302.634 188.737 302.634C143.914 302.634 107.577 266.315 107.577 221.513V131.657C107.577 130.968 108.136 130.409 108.825 130.409H111.323C112.012 130.409 112.571 129.85 112.571 129.161V124.169C112.571 123.48 112.012 122.921 111.323 122.921H108.825C108.136 122.921 107.577 122.362 107.577 121.673V115.433C107.577 111.298 110.931 107.945 115.068 107.945Z" fill="#FFD15C"/>
<path d="M145.035 107.945V245.226C145.035 270.775 160.397 292.738 182.393 302.389C140.534 299.155 107.577 264.181 107.577 221.513V131.657C107.577 130.968 108.136 130.409 108.825 130.409H111.323C112.012 130.409 112.571 129.85 112.571 129.161V124.169C112.571 123.48 112.012 122.921 111.323 122.921H108.825C108.136 122.921 107.577 122.362 107.577 121.673V115.433C107.577 111.298 110.931 107.945 115.068 107.945H145.035Z" fill="#FFDE5C"/>
<path d="M266.152 122.921C265.463 122.921 264.904 123.48 264.904 124.169V129.161C264.904 129.85 265.463 130.409 266.152 130.409H111.323C112.012 130.409 112.571 129.85 112.571 129.161V124.169C112.571 123.48 112.012 122.921 111.323 122.921H266.152Z" fill="#E0AF33"/>
<path d="M111.323 122.921H145.035V130.409H111.323C112.012 130.409 112.571 129.85 112.571 129.161V124.169C112.571 123.48 112.012 122.921 111.323 122.921Z" fill="#EEC544"/>
<path d="M185.786 254.47L163.209 259.39C155.732 261.019 148.349 256.282 146.719 248.808C146.605 248.288 146.522 247.763 146.469 247.233L144.174 224.252C143.976 222.272 143.353 220.358 142.349 218.64L130.691 198.699C126.83 192.095 129.056 183.613 135.664 179.754C136.123 179.486 136.598 179.244 137.086 179.03L158.243 169.747C160.067 168.947 161.695 167.764 163.019 166.278L178.391 149.035C183.482 143.323 192.241 142.819 197.955 147.907C198.352 148.261 198.73 148.637 199.083 149.035L214.455 166.278C215.779 167.764 217.408 168.947 219.231 169.747L240.39 179.03C247.397 182.105 250.584 190.275 247.508 197.279C247.294 197.766 247.052 198.24 246.784 198.699L235.126 218.64C234.121 220.358 233.499 222.272 233.301 224.252L231.007 247.233C230.246 254.844 223.457 260.399 215.842 259.639C215.312 259.586 214.785 259.503 214.266 259.39L191.689 254.47C189.744 254.046 187.731 254.046 185.786 254.47Z" fill="#FFF973"/>
<path d="M187.303 239.206L165.333 245.701C162.655 246.493 159.842 244.965 159.05 242.289C158.925 241.867 158.856 241.43 158.845 240.99L158.236 218.098C158.21 217.123 157.902 216.176 157.349 215.372L144.38 196.494C142.8 194.194 143.384 191.048 145.685 189.468C146.049 189.219 146.442 189.018 146.858 188.871L168.453 181.219C169.373 180.892 170.178 180.307 170.773 179.533L184.727 161.371C186.427 159.158 189.601 158.741 191.816 160.441C192.166 160.709 192.478 161.022 192.747 161.371L206.702 179.533C207.296 180.307 208.103 180.892 209.022 181.219L230.617 188.871C233.248 189.804 234.625 192.692 233.692 195.322C233.544 195.738 233.344 196.131 233.095 196.494L220.124 215.372C219.571 216.176 219.264 217.123 219.238 218.098L218.63 240.99C218.556 243.78 216.233 245.981 213.441 245.907C213.001 245.895 212.563 245.826 212.141 245.701L190.171 239.206C189.235 238.929 188.239 238.929 187.303 239.206Z" fill="#FFEB45"/>
<path d="M202.472 222.861V230.349C202.472 231.727 201.354 232.845 199.975 232.845H177.5C176.121 232.845 175.002 231.727 175.002 230.349V222.861C175.002 221.482 176.121 220.365 177.5 220.365H179.546C180.926 220.365 182.043 219.247 182.043 217.869V195.987C182.043 194.609 180.926 193.491 179.546 193.491C179.538 193.491 179.529 193.491 179.52 193.492L178.15 193.506C176.771 193.52 175.641 192.415 175.627 191.037V191.01V182.925C175.627 181.546 176.745 180.429 178.124 180.429H193.108C194.487 180.429 195.605 181.546 195.605 182.925V217.869C195.605 219.247 196.723 220.365 198.102 220.365H199.975C201.354 220.365 202.472 221.482 202.472 222.861Z" fill="#FFFA73"/>
<path d="M202.472 222.861V230.349C202.472 231.727 201.354 232.845 199.975 232.845H177.5C176.121 232.845 175.002 231.727 175.002 230.349V222.861C175.002 221.482 176.121 220.365 177.5 220.365H179.546C180.926 220.365 182.043 219.247 182.043 217.869V195.987C182.043 194.609 180.926 193.491 179.546 193.491C179.538 193.491 179.529 193.491 179.52 193.492L178.15 193.506C176.771 193.52 175.641 192.415 175.627 191.037V191.01V182.925C175.627 181.546 176.745 180.429 178.124 180.429H193.108C194.487 180.429 195.605 181.546 195.605 182.925V217.869C195.605 219.247 196.723 220.365 198.102 220.365H199.975C201.354 220.365 202.472 221.482 202.472 222.861Z" fill="#EB9E20"/>
</svg>
