<svg width="27" height="27" viewBox="0 0 27 27" fill="none" xmlns="http://www.w3.org/2000/svg">
<path d="M4.75 17.2792C2.43625 18.2038 1 19.4896 1 20.9127C1 23.7234 6.59625 26 13.5 26C20.4037 26 26 23.7234 26 20.9127C26 19.4896 24.5638 18.2038 22.25 17.2792" stroke="#F8F8F8" stroke-width="1.5" stroke-linecap="round" stroke-linejoin="round"/>
<path d="M13.5 1C11.5109 1 9.60322 1.80396 8.1967 3.23503C6.79018 4.6661 6 6.60704 6 8.63087C6 10.4356 6.3775 11.6171 7.40625 12.9232L13.5 20.0772L19.5938 12.9232C20.6225 11.6171 21 10.4356 21 8.63087C21 6.60704 20.2098 4.6661 18.8033 3.23503C17.3968 1.80396 15.4891 1 13.5 1Z" fill="white" stroke="white" stroke-linecap="round" stroke-linejoin="round"/>
<path d="M13.5 10.6526C14.6167 10.6526 15.5 9.73515 15.5 8.63082C15.5 7.52649 14.6167 6.60901 13.5 6.60901C12.3833 6.60901 11.5 7.52649 11.5 8.63082C11.5 9.73515 12.3833 10.6526 13.5 10.6526Z" fill="white" stroke="#004A8D" stroke-width="1.5" stroke-linecap="round" stroke-linejoin="round"/>
</svg>
