<svg width="27" height="27" viewBox="0 0 27 27" fill="none" xmlns="http://www.w3.org/2000/svg">
<path d="M5.34249 1V3.74662H1V6.43572C1 10.9367 2.1913 13.4461 5.05428 15.0063C6.11863 15.6487 7.10101 16.4493 7.97489 17.3863C8.67727 18.2273 9.53389 18.8872 10.4856 19.3204L11.568 19.6943V22.9514H9.91556C7.91725 22.9514 7.24474 23.4619 7.24474 24.979V26H19.7342V25.0869C19.7342 23.5985 18.9144 22.9298 17.0186 22.9298H15.4109V19.6943L16.5126 19.3276C17.4657 18.8939 18.3226 18.2313 19.0233 17.3863C19.9349 16.4108 20.9554 15.5722 22.0592 14.8913C22.9162 14.4283 23.6816 13.7766 24.3099 12.975C24.9381 12.1734 25.4164 11.2381 25.7164 10.2249C25.9202 8.97036 26.0146 7.69647 25.9982 6.42134V3.75381H21.6365V1H5.34249ZM13.4895 5.5801L14.8025 8.6287H17.9665L15.4878 11.1956L16.1987 14.4743L13.4895 12.8421L10.7802 14.4958L11.4912 11.2171L9.00607 8.65027H12.1765L13.4895 5.5801ZM3.28013 6.49324H5.30407V12.159C5.0927 12.3028 4.433 11.44 3.95264 10.455C3.67992 9.70085 3.5052 8.9066 3.43385 8.09664L3.28013 6.49324ZM21.6749 6.49324H23.8782L23.6924 8.07506C23.6488 9.39185 23.1771 10.6451 22.3666 11.5982C22.1759 11.8899 21.934 12.1346 21.6557 12.3172L21.6749 6.49324Z" stroke="white" stroke-linecap="round" stroke-linejoin="round"/>
</svg>
