<svg width="27" height="27" viewBox="0 0 27 27" fill="none" xmlns="http://www.w3.org/2000/svg">
<path d="M4.68989 0V2.96635H0V5.87058C0 10.7317 1.28661 13.4418 4.37862 15.1268C5.52812 15.8206 6.58909 16.6852 7.53288 17.6972C8.29145 18.6055 9.2166 19.3182 10.2444 19.786L11.4135 20.1898V23.7075H9.62881C7.47063 23.7075 6.74432 24.2588 6.74432 25.8973V27H20.233V26.0138C20.233 24.4064 19.3475 23.6842 17.3 23.6842H15.5638V20.1898L16.7536 19.7938C17.7829 19.3254 18.7084 18.6098 19.4651 17.6972C20.4497 16.6437 21.5518 15.7379 22.7439 15.0026C23.6695 14.5026 24.4961 13.7987 25.1746 12.933C25.8532 12.0672 26.3697 11.0572 26.6937 9.9629C26.9139 8.60798 27.0158 7.23218 26.998 5.85505V2.97412H22.2874V0H4.68989ZM13.4886 4.94651L14.9067 8.239H18.3238L15.6468 11.0112L16.4146 14.5522L13.4886 12.7895L10.5626 14.5755L11.3305 11.0345L8.64656 8.26229H12.0706L13.4886 4.94651ZM2.46254 5.9327H4.64839V12.0518C4.42012 12.2071 3.70764 11.2752 3.18885 10.2114C2.89431 9.39691 2.70562 8.53913 2.62855 7.66437L2.46254 5.9327ZM22.3289 5.9327H24.7084L24.5078 7.64107C24.4607 9.0632 23.9513 10.4167 23.0759 11.4461C22.87 11.7611 22.6087 12.0254 22.3081 12.2226L22.3289 5.9327Z" fill="white"/>
</svg>
