<svg width="26" height="25" viewBox="0 0 26 25" fill="none" xmlns="http://www.w3.org/2000/svg">
<path d="M16.321 3.15332C15.3662 2.12744 14.0326 1.5625 12.5607 1.5625C11.0809 1.5625 9.74288 2.12402 8.79249 3.14355C7.83179 4.17432 7.36371 5.5752 7.47362 7.08789C7.69147 10.0723 9.97349 12.5 12.5607 12.5C15.1479 12.5 17.426 10.0728 17.6473 7.08887C17.7587 5.58984 17.2876 4.19189 16.321 3.15332ZM21.1962 23.4375H3.92522C3.69916 23.4404 3.47529 23.3932 3.26989 23.2992C3.06449 23.2051 2.88274 23.0668 2.73785 22.894C2.41892 22.5146 2.29037 21.9966 2.38556 21.4727C2.79967 19.1865 4.09205 17.2661 6.12334 15.918C7.92796 14.7212 10.2139 14.0625 12.5607 14.0625C14.9075 14.0625 17.1934 14.7217 18.998 15.918C21.0293 17.2656 22.3217 19.186 22.7358 21.4722C22.831 21.9961 22.7025 22.5142 22.3835 22.8936C22.2387 23.0664 22.057 23.2048 21.8516 23.2989C21.6462 23.393 21.4223 23.4404 21.1962 23.4375Z" fill="white"/>
</svg>
