<svg width="26" height="25" viewBox="0 0 26 25" fill="none" xmlns="http://www.w3.org/2000/svg">
<path d="M18.2316 6.27612L18.2316 6.2762C17.9785 9.45976 15.3758 11.9999 12.5 11.9999C9.62379 11.9999 7.01699 9.4589 6.76789 6.27588C6.64407 4.68564 7.16993 3.23006 8.2385 2.16026C9.29891 1.09883 10.8057 0.5 12.5 0.5C14.1827 0.5 15.6846 1.10142 16.7516 2.17117C17.8293 3.25161 18.3567 4.70447 18.2316 6.27612ZM23.0825 24.4999V24.4999H23.0766H1.92337V24.4998L1.91733 24.4999C1.70911 24.5024 1.50392 24.4617 1.3171 24.3819C1.13034 24.3022 0.968202 24.1861 0.840899 24.0445L0.840565 24.0441C0.560417 23.7331 0.440269 23.3025 0.528386 22.8499L0.528439 22.8496C1.00625 20.3883 2.49625 18.3068 4.87871 16.8313C7.00169 15.5176 9.70843 14.7856 12.5 14.7856C15.2914 14.7856 17.9982 15.5181 20.1212 16.8313C22.5037 18.3062 23.9937 20.3877 24.4716 22.8491L24.4716 22.8493C24.5597 23.3019 24.4396 23.7326 24.1594 24.0435L24.159 24.0441C24.0317 24.1857 23.8696 24.3019 23.6828 24.3817C23.496 24.4616 23.2908 24.5024 23.0825 24.4999Z" stroke="white"/>
</svg>
