<svg width="27" height="27" viewBox="0 0 27 27" fill="none" xmlns="http://www.w3.org/2000/svg">
<path d="M7.01608 13.0314C7.02009 13.0364 7.0242 13.0414 7.02841 13.0462L13.1222 20.0775C13.2171 20.187 13.355 20.25 13.5 20.25C13.645 20.25 13.7829 20.187 13.8778 20.0775L19.9716 13.0462C19.9758 13.0414 19.9799 13.0364 19.9839 13.0314C20.5272 12.3535 20.9118 11.6907 21.1573 10.9505C21.4019 10.2125 21.5 9.42225 21.5 8.5C21.5 6.37827 20.6571 4.34344 19.1569 2.84315C17.6566 1.34285 15.6217 0.5 13.5 0.5C11.3783 0.5 9.34344 1.34285 7.84315 2.84315C6.34285 4.34344 5.5 6.37827 5.5 8.5C5.5 9.42225 5.59807 10.2125 5.84275 10.9505C6.08816 11.6907 6.47282 12.3535 7.01608 13.0314Z" fill="white" stroke="#004A8D" stroke-linecap="round" stroke-linejoin="round"/>
<mask id="path-2-outside-1_447_149" maskUnits="userSpaceOnUse" x="0" y="15.4287" width="27" height="12" fill="black">
<rect fill="white" y="15.4287" width="27" height="12"/>
<path d="M4.75 17.4287C2.43625 18.3375 1 19.6012 1 21C1 23.7625 6.59625 26 13.5 26C20.4037 26 26 23.7625 26 21C26 19.6012 24.5637 18.3375 22.25 17.4287"/>
</mask>
<path d="M5.11557 18.3595C5.62963 18.1576 5.88268 17.5772 5.68078 17.0631C5.47888 16.5491 4.89848 16.296 4.38443 16.4979L5.11557 18.3595ZM22.6156 16.4979C22.1015 16.296 21.5211 16.5491 21.3192 17.0631C21.1173 17.5772 21.3704 18.1576 21.8844 18.3595L22.6156 16.4979ZM4.38443 16.4979C3.15817 16.9796 2.0969 17.5799 1.32544 18.2991C0.552392 19.0198 0 19.9319 0 21H2C2 20.6692 2.16573 20.2501 2.68925 19.762C3.21435 19.2725 4.02808 18.7866 5.11557 18.3595L4.38443 16.4979ZM0 21C0 22.054 0.537975 22.957 1.29514 23.6732C2.05015 24.3873 3.08899 24.9842 4.28975 25.4644C6.6968 26.4271 9.95354 27 13.5 27V25C10.1427 25 7.14945 24.4541 5.03244 23.6074C3.97116 23.183 3.17946 22.7025 2.66943 22.2201C2.16156 21.7398 2 21.3271 2 21H0ZM13.5 27C17.0465 27 20.3032 26.4271 22.7103 25.4644C23.911 24.9842 24.9499 24.3873 25.7049 23.6732C26.462 22.957 27 22.054 27 21H25C25 21.3271 24.8384 21.7398 24.3306 22.2201C23.8205 22.7025 23.0288 23.183 21.9676 23.6074C19.8506 24.4541 16.8573 25 13.5 25V27ZM27 21C27 19.9319 26.4476 19.0198 25.6746 18.2991C24.9031 17.5799 23.8418 16.9796 22.6156 16.4979L21.8844 18.3595C22.9719 18.7866 23.7857 19.2725 24.3108 19.762C24.8343 20.2501 25 20.6692 25 21H27Z" fill="white" mask="url(#path-2-outside-1_447_149)"/>
<path d="M13.5 10.25C14.4665 10.25 15.25 9.4665 15.25 8.5C15.25 7.5335 14.4665 6.75 13.5 6.75C12.5335 6.75 11.75 7.5335 11.75 8.5C11.75 9.4665 12.5335 10.25 13.5 10.25Z" fill="white" stroke="#004A8D" stroke-linecap="round" stroke-linejoin="round"/>
</svg>
