<svg width="26" height="25" viewBox="0 0 26 25" fill="none" xmlns="http://www.w3.org/2000/svg">
<path d="M17.9824 6.25628L17.9824 6.25639C17.7383 9.32666 15.2293 11.7499 12.5 11.7499C9.77008 11.7499 7.25738 9.32565 7.01714 6.25647C6.89871 4.7355 7.40086 3.35262 8.41538 2.33693C9.42398 1.32737 10.8647 0.75 12.5 0.75C14.1226 0.75 15.5588 1.32931 16.5746 2.34772C17.5992 3.37491 18.1019 4.75537 17.9824 6.25628ZM23.0855 24.2499L23.0855 24.2499H23.0766H1.92337V24.2498L1.91431 24.2499C1.74041 24.252 1.56974 24.218 1.41529 24.152C1.26094 24.0861 1.12903 23.991 1.02681 23.8773L1.02631 23.8768C0.801392 23.6271 0.699894 23.2771 0.773778 22.8977L0.773858 22.8973C1.23697 20.5116 2.68054 18.4868 5.01026 17.0439C7.0896 15.7572 9.74981 15.0356 12.5 15.0356C15.2501 15.0356 17.9104 15.7577 19.9899 17.044C22.3195 18.4862 23.763 20.5111 24.2261 22.8967L24.2262 22.8971C24.3001 23.2766 24.1986 23.6266 23.9737 23.8762L23.973 23.877C23.8708 23.9908 23.7389 24.0859 23.5846 24.1519C23.4301 24.2179 23.2594 24.252 23.0855 24.2499Z" fill="white" stroke="white" stroke-width="1.5"/>
</svg>
