<svg width="35" height="35" viewBox="0 0 35 35" fill="none" xmlns="http://www.w3.org/2000/svg">
<g style="mix-blend-mode:screen" filter="url(#filter0_d_447_145)">
<g filter="url(#filter1_d_447_145)">
<path d="M9.34249 1V3.74662H5V6.43572C5 10.9367 6.1913 13.4461 9.05428 15.0063C10.1186 15.6487 11.101 16.4493 11.9749 17.3863C12.6773 18.2273 13.5339 18.8872 14.4856 19.3204L15.568 19.6943V22.9514H13.9156C11.9172 22.9514 11.2447 23.4619 11.2447 24.979V26H23.7342V25.0869C23.7342 23.5985 22.9144 22.9298 21.0186 22.9298H19.4109V19.6943L20.5126 19.3276C21.4657 18.8939 22.3226 18.2313 23.0233 17.3863C23.9349 16.4108 24.9554 15.5722 26.0592 14.8913C26.9162 14.4283 27.6816 13.7766 28.3099 12.975C28.9381 12.1734 29.4164 11.2381 29.7164 10.2249C29.9202 8.97036 30.0146 7.69647 29.9982 6.42134V3.75381H25.6365V1H9.34249ZM17.4895 5.5801L18.8025 8.6287H21.9665L19.4878 11.1956L20.1987 14.4743L17.4895 12.8421L14.7802 14.4958L15.4912 11.2171L13.0061 8.65027H16.1765L17.4895 5.5801ZM7.28013 6.49324H9.30407V12.159C9.0927 12.3028 8.433 11.44 7.95264 10.455C7.67992 9.70085 7.5052 8.9066 7.43385 8.09664L7.28013 6.49324ZM25.6749 6.49324H27.8782L27.6924 8.07506C27.6488 9.39185 27.1771 10.6451 26.3666 11.5982C26.1759 11.8899 25.934 12.1346 25.6557 12.3172L25.6749 6.49324Z" fill="white"/>
<path d="M9.34249 1V3.74662H5V6.43572C5 10.9367 6.1913 13.4461 9.05428 15.0063C10.1186 15.6487 11.101 16.4493 11.9749 17.3863C12.6773 18.2273 13.5339 18.8872 14.4856 19.3204L15.568 19.6943V22.9514H13.9156C11.9172 22.9514 11.2447 23.4619 11.2447 24.979V26H23.7342V25.0869C23.7342 23.5985 22.9144 22.9298 21.0186 22.9298H19.4109V19.6943L20.5126 19.3276C21.4657 18.8939 22.3226 18.2313 23.0233 17.3863C23.9349 16.4108 24.9554 15.5722 26.0592 14.8913C26.9162 14.4283 27.6816 13.7766 28.3099 12.975C28.9381 12.1734 29.4164 11.2381 29.7164 10.2249C29.9202 8.97036 30.0146 7.69647 29.9982 6.42134V3.75381H25.6365V1H9.34249ZM17.4895 5.5801L18.8025 8.6287H21.9665L19.4878 11.1956L20.1987 14.4743L17.4895 12.8421L14.7802 14.4958L15.4912 11.2171L13.0061 8.65027H16.1765L17.4895 5.5801ZM7.28013 6.49324H9.30407V12.159C9.0927 12.3028 8.433 11.44 7.95264 10.455C7.67992 9.70085 7.5052 8.9066 7.43385 8.09664L7.28013 6.49324ZM25.6749 6.49324H27.8782L27.6924 8.07506C27.6488 9.39185 27.1771 10.6451 26.3666 11.5982C26.1759 11.8899 25.934 12.1346 25.6557 12.3172L25.6749 6.49324Z" stroke="white" stroke-linecap="round" stroke-linejoin="round"/>
</g>
</g>
<defs>
<filter id="filter0_d_447_145" x="0.5" y="0.5" width="34" height="34" filterUnits="userSpaceOnUse" color-interpolation-filters="sRGB">
<feFlood flood-opacity="0" result="BackgroundImageFix"/>
<feColorMatrix in="SourceAlpha" type="matrix" values="0 0 0 0 0 0 0 0 0 0 0 0 0 0 0 0 0 0 127 0" result="hardAlpha"/>
<feOffset dy="4"/>
<feGaussianBlur stdDeviation="2"/>
<feComposite in2="hardAlpha" operator="out"/>
<feColorMatrix type="matrix" values="0 0 0 0 0 0 0 0 0 0 0 0 0 0 0 0 0 0 0.25 0"/>
<feBlend mode="normal" in2="BackgroundImageFix" result="effect1_dropShadow_447_145"/>
<feBlend mode="normal" in="SourceGraphic" in2="effect1_dropShadow_447_145" result="shape"/>
</filter>
<filter id="filter1_d_447_145" x="0.5" y="0.5" width="34" height="34" filterUnits="userSpaceOnUse" color-interpolation-filters="sRGB">
<feFlood flood-opacity="0" result="BackgroundImageFix"/>
<feColorMatrix in="SourceAlpha" type="matrix" values="0 0 0 0 0 0 0 0 0 0 0 0 0 0 0 0 0 0 127 0" result="hardAlpha"/>
<feOffset dy="4"/>
<feGaussianBlur stdDeviation="2"/>
<feComposite in2="hardAlpha" operator="out"/>
<feColorMatrix type="matrix" values="0 0 0 0 0 0 0 0 0 0 0 0 0 0 0 0 0 0 0.25 0"/>
<feBlend mode="normal" in2="BackgroundImageFix" result="effect1_dropShadow_447_145"/>
<feBlend mode="normal" in="SourceGraphic" in2="effect1_dropShadow_447_145" result="shape"/>
</filter>
</defs>
</svg>
