<svg width="27" height="27" viewBox="0 0 27 27" fill="none" xmlns="http://www.w3.org/2000/svg">
<path d="M13.5 1C11.5109 1 9.60322 1.79018 8.1967 3.1967C6.79018 4.60322 6 6.51088 6 8.5C6 10.2738 6.3775 11.435 7.40625 12.7188L13.5 19.75L19.5938 12.7188C20.6225 11.435 21 10.2738 21 8.5C21 6.51088 20.2098 4.60322 18.8033 3.1967C17.3968 1.79018 15.4891 1 13.5 1Z" stroke="#F8F8F8" stroke-width="2" stroke-linecap="round" stroke-linejoin="round"/>
<path d="M4.75 17.4287C2.43625 18.3375 1 19.6012 1 21C1 23.7625 6.59625 26 13.5 26C20.4037 26 26 23.7625 26 21C26 19.6012 24.5637 18.3375 22.25 17.4287" stroke="#F8F8F8" stroke-width="2" stroke-linecap="round" stroke-linejoin="round"/>
<path d="M13.5 9.75C14.1904 9.75 14.75 9.19036 14.75 8.5C14.75 7.80964 14.1904 7.25 13.5 7.25C12.8096 7.25 12.25 7.80964 12.25 8.5C12.25 9.19036 12.8096 9.75 13.5 9.75Z" stroke="#F8F8F8" stroke-width="2" stroke-linecap="round" stroke-linejoin="round"/>
</svg>
