<svg width="29" height="29" viewBox="0 0 29 29" fill="none" xmlns="http://www.w3.org/2000/svg">
<path d="M6.34249 1.25C5.92828 1.25 5.59249 1.58579 5.59249 2V3.99662H2C1.58579 3.99662 1.25 4.33241 1.25 4.74662V7.43572C1.25 9.74328 1.5538 11.62 2.27565 13.1447C3.00483 14.6849 4.1344 15.8109 5.68036 16.6567C6.67281 17.2575 7.59207 18.0058 8.41289 18.8833C9.1813 19.7987 10.1222 20.5239 11.1749 21.003C11.1964 21.0128 11.2184 21.0216 11.2407 21.0293L11.818 21.2287V23.2014H10.9156C9.90091 23.2014 9.00808 23.32 8.37729 23.7989C7.6828 24.3261 7.49474 25.128 7.49474 25.979V27C7.49474 27.4142 7.83052 27.75 8.24474 27.75H20.7342C21.1484 27.75 21.4842 27.4142 21.4842 27V26.0869C21.4842 25.2045 21.2355 24.4078 20.5556 23.8643C19.9147 23.3521 19.0266 23.1798 18.0186 23.1798H17.1609V21.2351L17.7494 21.0392C17.7745 21.0308 17.7991 21.0212 17.8232 21.0102C18.8777 20.5304 19.8191 19.8023 20.5859 18.8827C21.4447 17.9664 22.4026 17.1797 23.4354 16.5405C24.3791 16.027 25.2161 15.3105 25.9002 14.4376C26.5889 13.5588 27.1098 12.5382 27.4355 11.4378C27.4445 11.4074 27.4516 11.3765 27.4566 11.3452C27.6673 10.0492 27.7649 8.73344 27.7482 7.41657V4.75381C27.7482 4.3396 27.4124 4.00381 26.9982 4.00381H23.3865V2C23.3865 1.58579 23.0507 1.25 22.6365 1.25H6.34249ZM14.4919 8.48178L15.1136 9.92537C15.2321 10.2005 15.5029 10.3787 15.8025 10.3787H17.1996L15.9483 11.6746C15.7743 11.8547 15.7018 12.1098 15.7548 12.3545L16.0976 13.9353L14.8765 13.1997C14.6371 13.0554 14.3373 13.0563 14.0987 13.2019L12.8843 13.9432L13.2241 12.3761C13.2773 12.131 13.2044 11.8756 13.03 11.6955L11.7761 10.4003H13.1765C13.4767 10.4003 13.748 10.2212 13.8661 9.94518L14.4919 8.48178ZM5.18095 9.03082L5.18097 9.03081L5.18042 9.02506L5.10547 8.24324H5.55407V10.8945C5.36265 10.2941 5.2371 9.66816 5.18095 9.03082ZM23.9428 9.05021C23.9178 9.80612 23.7321 10.5327 23.4127 11.1734L23.4224 8.24324H24.0349L23.9475 8.9876C23.9451 9.0084 23.9435 9.02928 23.9428 9.05021Z" stroke="white" stroke-width="1.5" stroke-linecap="round" stroke-linejoin="round"/>
</svg>
