<svg width="25" height="25" viewBox="0 0 25 25" fill="none" xmlns="http://www.w3.org/2000/svg">
<path d="M4.34249 0V2.74662H0V5.43572C0 9.93673 1.1913 12.4461 4.05428 14.0063C5.11863 14.6487 6.10101 15.4493 6.97489 16.3863C7.67727 17.2273 8.53389 17.8872 9.4856 18.3204L10.568 18.6943V21.9514H8.91556C6.91725 21.9514 6.24474 22.4619 6.24474 23.979V25H18.7342V24.0869C18.7342 22.5985 17.9144 21.9298 16.0186 21.9298H14.4109V18.6943L15.5126 18.3276C16.4657 17.8939 17.3226 17.2313 18.0233 16.3863C18.9349 15.4108 19.9554 14.5722 21.0592 13.8913C21.9162 13.4283 22.6816 12.7766 23.3099 11.975C23.9381 11.1734 24.4164 10.2381 24.7164 9.22491C24.9202 7.97036 25.0146 6.69647 24.9982 5.42134V2.75381H20.6365V0H4.34249ZM12.4895 4.5801L13.8025 7.6287H16.9665L14.4878 10.1956L15.1987 13.4743L12.4895 11.8421L9.78022 13.4958L10.4912 10.2171L8.00607 7.65027H11.1765L12.4895 4.5801ZM2.28013 5.49324H4.30407V11.159C4.0927 11.3028 3.433 10.44 2.95264 9.45499C2.67992 8.70085 2.5052 7.9066 2.43385 7.09663L2.28013 5.49324ZM20.6749 5.49324H22.8782L22.6924 7.07506C22.6488 8.39185 22.1771 9.64512 21.3666 10.5982C21.1759 10.8899 20.934 11.1346 20.6557 11.3172L20.6749 5.49324Z" fill="#666666"/>
</svg>
